<svg height="3394" viewBox="0 0 3791 3394" width="3791" xmlns="http://www.w3.org/2000/svg" xmlns:xlink="http://www.w3.org/1999/xlink"><filter id="a" height="104%" width="103.5%" x="-1.5%" y="-1.6%"><feOffset dx="11" dy="11" in="SourceAlpha" result="shadowOffsetOuter1"/><feGaussianBlur in="shadowOffsetOuter1" result="shadowBlurOuter1" stdDeviation="20"/><feColorMatrix in="shadowBlurOuter1" result="shadowMatrixOuter1" type="matrix" values="0 0 0 0 0.0090880102   0 0 0 0 0.0055306552   0 0 0 0 0.0055306552  0 0 0 0.880944293 0"/><feMerge><feMergeNode in="shadowMatrixOuter1"/><feMergeNode in="SourceGraphic"/></feMerge></filter><g fill="none" filter="url(#a)" transform="translate(29 29)"><g fill="#434a22" transform="translate(530 332)"><path d="m2010 2977c0-4-10-5-22-2-23 5-23 5-3-9 18-14 46-21 127-33 15-2 30 0 33 4 5 9 75-4 110-20 12-5 48-6 87-1 67 8 156-2 188-23 22-13 50-13 50 0 0 19-46 34-133 45-43 5-113 16-155 24-82 16-282 26-282 15z"/><path d="m2720 2863c0-8-4-15-10-15-5 0-10-6-10-12 0-9 22-13 77-13 64 0 78 3 81 17 4 21-2 24-75 32-53 6-63 5-63-9z"/><path d="m1126 2846c-10-6-53-14-95-17-72-7-75-8-49-20 24-12 37-10 120 17 51 17 82 31 68 31s-34-5-44-11z"/><path d="m1235 2848c67-19 113-28 163-34 30-4 84-11 120-17 37-6 79-12 94-14 39-6 45 14 9 26-17 6-31 14-31 19 0 4-40 12-88 19-104 13-314 14-267 1z"/><path d="m53 2721c-29-9-53-19-53-23 0-11 152-25 225-21 40 2 64 8 72 18 7 9 34 22 60 29 45 12 38 13-102 13-106-1-165-5-202-16z"/><path d="m1970 1039c0-6 5-13 10-16 6-3 10 1 10 9 0 9-4 16-10 16-5 0-10-4-10-9z"/><path d="m1960 999c0-11 26-22 34-14 3 4 6 11 6 17s-5 4-10-4c-6-10-10-11-10-2 0 6-4 12-10 12-5 0-10-4-10-9z"/><path d="m1849 971c-13-15-16-22-7-15 12 10 22 11 37 3 26-15 88-14 97 1 4 7 3 8-4 4s-12-1-12 6c0 10-2 10-8 1-10-16-35-11-56 10-22 21-18 22-47-10z"/><path d="m1813 907c13-21 23-24 32-10 6 10-11 24-32 27-9 2-9-2 0-17z"/><path d="m1790 889c0-10 19-25 25-20 1 2-3 10-11 17s-14 8-14 3z"/><path d="m1865 834c20-17 26-30 22-46-4-17-3-19 9-9 8 6 14 17 14 23 0 16-43 56-60 56-7 0-1-11 15-24z"/><path d="m1412 544c7-8 17-12 22-9 4 3 2 9-5 14-22 13-31 11-17-5z"/><path d="m2216 301c-15-4-16-7-5-14s11-9-3-9c-10 0-18-5-18-11 0-5-5-7-11-3-8 5-10-1-7-20 3-14 2-29-3-32-4-2-6-10-3-17 7-20-44-127-61-127-8 0-19-9-25-21-9-17-8-23 7-35 22-18 141-13 153 5 4 7 10 49 14 94s8 97 10 115c3 25 0 32-13 30-11-2-16 4-15 25 1 15 1 26 0 26 0-1-10-4-20-6z"/><path d="m1433 181c9-9 20-13 24-9s1 11-7 16c-25 16-35 11-17-7z"/><path d="m2427 141c-21-2-35-9-31-14 3-5-12-25-33-44-21-20-30-32-20-29 9 3 17 10 17 14 0 6 54 34 70 35 11 1 50 30 50 37 0 5-3 7-7 6-5-1-25-3-46-5z"/></g><g fill="#486417" transform="translate(510 111)"><path d="m1990 3179c-22-13-7-22 62-36 102-21 200-44 207-48 3-2 22 3 41 12s51 19 70 23c22 4 12 5-26 3-33-2-64-1-68 3-12 13-106 31-112 22-2-4-17-6-32-4-76 11-108 19-117 26-6 4-17 4-25-1z"/><path d="m2465 3131c19-13 37-59 33-83l-3-24-27 28c-29 31-57 40-79 26-12-8-11-12 5-24 11-8 28-15 38-15 9 0 28-16 41-36 22-32 26-34 40-20 20 21 93 21 141 1 34-15 93-13 120 3 5 3 43 6 83 7 61 1 78 5 96 23 25 25 20 32-39 55-40 15-40 15-40-6 1-21-3-22-76-22-56 0-78 4-78 13 0 6 5 12 10 12 6 0 10 6 10 14 0 15-21 26-48 26-14 0-14-2-3-9 9-6 11-20 6-50-7-42-7-42-43-35-47 8-45 6-45 52 0 34-3 39-21 37-11 0-28 4-36 11-8 6-33 14-55 17-22 4-35 3-30-1z"/><path d="m1215 3069c3-6 15-10 25-10s25-8 32-18c19-27 43-33 141-37 50-3 95-10 104-16 10-9 17-9 21-2 4 6 21 9 37 6 77-11 118-12 106 0-6 6-25 12-43 13s-64 7-103 13c-38 6-88 13-110 16-85 11-121 18-135 25-27 13-81 20-75 10z"/><path d="m1145 3054c-22-8-31-14-20-14s34 6 50 14c38 17 22 17-30 0z"/><path d="m979 3030c-1-3-1-10 0-15s-5-6-14-2c-8 3-22 9-30 12s-15 1-15-5-8-11-17-11c-10 0-27-8-38-16-19-15-18-16 20-10 22 3 68 12 102 19l63 12-35 11c-19 6-36 8-36 5z"/><path d="m351 2938c-13-5-29-16-35-24-20-26-281-19-298 8-4 8-9 5-14-6-3-10-5-20-2-22 2-2 58-9 123-16 66-6 128-17 138-24 24-16 96-3 115 22 7 10 18 17 24 15s8 6 6 16c-3 10 0 19 6 19 6 1 41 2 78 3 37 2 65 6 62 11-7 12-173 10-203-2z"/><path d="m455 2909c-4-6 6-10 22-10 22 0 25 2 13 10-19 12-27 12-35 0z"/><path d="m410 2853c0-9 44-43 57-44 17 0 21 23 7 37-13 13-64 18-64 7z"/><path d="m286 1512c-12-12-6-33 9-33 8 0 15 6 15 14 0 17-14 28-24 19z"/><path d="m2293 1422c-7-16-15-77-19-136-6-86-4-107 6-105s12-13 11-62c-2-35-5-68-7-72-3-4-9-31-14-60-15-88-21-110-30-128-5-9-8-30-7-46 5-51-80-122-96-81-3 6-6-52-6-130-1-136-2-143-21-143-11 0-20 5-20 11 0 5-5 7-11 3-7-4-1-15 16-30 24-20 27-28 21-61-8-40-24-98-35-123-4-8-1-31 5-50 10-28 14-31 19-17 4 9 14 17 23 17 12 0 9 5-8 17-14 9-26 17-28 19-9 6 20 44 33 44 17 0 68 107 61 127-3 7-1 15 3 17 5 3 6 18 3 32-3 19-1 25 7 20 6-4 11-2 11 3 0 6 8 11 18 11 13 0 14 2 4 9-11 6-9 9 6 13s19 0 18-21c-1-19 4-25 16-23 13 2 15-5 12-40-17-166-19-196-13-192 6 3 10 19 25 103 3 13 10 33 15 43 6 11 9 38 8 62-2 23 1 48 5 55 5 7 10 34 12 59s8 50 14 56c5 5 10 22 10 37 0 14 3 40 6 57l6 30 57-34c57-35 77-42 66-24-4 6 6 10 22 10 23 0 25-2 13-11-12-8-10-10 10-5 15 3 32-1 45-12 11-9 14-10 8-2-7 8-13 23-14 34 0 12-3 16-5 9-4-8-13-9-27-4-12 5-31 5-42 1-26-10-35-4-35 22 0 27-39 80-55 74-9-3-11 7-7 42 4 47-10 52-21 7-3-11-5 2-6 28 0 26-7 54-13 61-11 11-15 7-24-23-9-33-11-26-23 86-8 67-10 129-6 140 5 10 11 64 14 121 3 56 10 103 15 105 4 1 15-16 24-38s20-43 26-47c18-12 30 10 19 34-13 29-91 128-101 128-4 0-13-12-19-27z"/><path d="m307 1404c-9-19-21-35-27-35-5 0-10-6-10-14 0-11 5-12 25-3 14 7 25 20 25 29s7 21 16 26c13 7 13 10 1 20-11 9-17 5-30-23z"/><path d="m1987 1332c-4-3-7-14-7-24 0-9-6-19-12-22-10-3-8-9 5-24 9-11 14-23 10-26-3-4-2-7 4-7s13-6 16-14c4-10 0-12-14-9-15 4-18 2-13-11 3-9 11-13 17-9 6 3 7 1 3-5-9-15-71-16-97-1-15 8-24 7-36-3-9-7-18-12-21-10-2 2-10-8-17-22-12-22-11-28 1-41 9-8 11-15 4-15-6 0-13 7-16 15-9 23-32 18-50-11-13-18-14-28-6-33 6-4 13-24 16-45 5-41 16-61 16-30 0 15 2 16 9 5 6-10 5-27-4-47-8-19-11-51-8-76 3-29 1-39-5-30-15 22-47 10-50-18-3-24-3-24 11-6 9 13 18 16 28 10 19-12 18-36-4-52-13-10-15-17-7-27 8-9 6-14-5-19-11-4-15 1-15 20 0 13 7 27 15 30 8 4 15 10 15 15 0 23-41-20-50-51-13-46-13-50 4-44 8 3 17 0 22-7 5-9 2-10-9-6s-20-1-27-13c-11-21-11-22 23-23 12-1 23 4 23 11 1 7 2 18 3 25 0 7 10 23 20 34 11 12 17 24 14 27-4 3-1 6 5 6s34 48 63 108c29 59 56 109 61 110 4 2 6 8 2 13-3 5 0 9 5 9 6 0 11 6 11 13 0 8 14 31 32 51 34 40 35 42 43 161 7 103-2 144-28 118zm23-79c0-8-4-12-10-9-5 3-10 10-10 16 0 5 5 9 10 9 6 0 10-7 10-16zm-150-138c-8-8-13-7-20 4-12 20-1 33 16 19 11-9 12-15 4-23zm47-58c26-25 29-41 9-57-12-10-13-8-9 9 4 16-2 29-22 46-16 13-22 24-15 24 8 0 24-10 37-22z"/><path d="m314 1274c-6-25-52-85-65-85-3 0-4 11-2 24 4 17-1 27-15 35-25 13-35 1-34-40 1-37-7-36-48 6-37 39-47 41-75 21-18-13-16-16 26-67 24-30 47-57 52-60 21-16 55-73 50-85-3-8-16-14-30-14-20 0-24-4-18-17 4-10 10-44 13-75 4-47 1-61-17-84-11-15-21-33-21-40 0-8-4-14-10-14-17 0-12-91 6-104 13-10 13-14-5-35-21-24-30-88-11-76 6 4 9 14 8 23-2 12 3 16 17 14 13-1 26 8 36 27 16 27 16 28-2 24-24-7-24 3 1 34 11 14 20 34 20 44 0 11 7 19 15 19 10 0 15 8 14 23-6 70 0 92 32 104 36 14 45 2 35-51-7-34 12-64 32-52 14 9 22 59 11 72-11 14-14 137-4 176 4 15 15 30 24 33 10 3 32 26 50 52 27 38 31 50 22 65-6 10-11 27-11 38 0 21-15 27-25 10-3-5-15-10-26-10-16 0-19 7-19 45 0 49-16 61-26 20z"/><path d="m1902 1232c-15-6-6-23 14-23 8 0 14 7 14 15 0 15-6 17-28 8z"/><path d="m470 1149c0-5 5-10 10-10 6 0 10 5 10 10 0 6-4 10-10 10-5 0-10-4-10-10z"/><path d="m1030 1040c0-30 11-51 26-51s18 27 8 54c-9 22-34 20-34-3z"/><path d="m2049 946c-10-14-26-20-48-19-49 1-82-38-106-128-10-35-17-44-31-43-11 1-13 0-6-3 22-10 13-21-17-21s-61-18-61-35c0-5 4-7 9-4 17 11 33-22 26-54-4-16-3-30 2-30s10-11 11-25c1-19-2-23-15-18-15 6-16 5-3-9 8-9 17-16 20-16 22 1 29-6 29-29 1-67 7-112 15-120 5-5 6 0 3 10-9 25 13 53 39 51 17-1 20 3 16 18-2 11-10 22-17 24-18 7 5 54 27 54 24 0 30-16 12-31-14-12-14-14 3-20 30-12 49-11 36 2s3 59 19 59c5 0 7 8 4 18-5 14 1 22 21 32 16 7 23 15 16 17-7 3-13 12-13 20 0 13 3 13 15 3 8-7 15-19 15-26 0-8 6-14 14-14 17 0 27 47 12 55-8 3-7 7 2 11 7 3 12 25 12 53 0 26 5 52 12 59 9 9 9 12 0 12-7 0-12 12-13 28 0 15-10 52-22 83-21 55-23 56-38 36zm-114-247c3-5 3-15-1-21-6-11-23 6-24 24 0 10 18 9 25-3zm44-53c-6-21-5-33 2-38 19-12-9-21-29-10-11 6-22 8-25 5s-8 0-13 7c-5 9-1 11 14 7 22-6 32 8 32 46 0 13 3 26 7 29 13 14 21-16 12-46z"/><path d="m1153 895c-6-7-7-19-3-26s4-27-1-44c-12-41-11-44 5-23 14 18 15 18 26 0 9-14 10-7 6 36-6 60-15 76-33 57z"/><path d="m430 895c0-2 7-6 15-10 8-3 15-1 15 4 0 6-7 10-15 10s-15-2-15-4z"/><path d="m2547 893c-8-8 15-53 43-82 18-19 24-21 31-10 13 20 11 39-4 36s-69 47-60 56c4 3 4 6 1 6-2 0-7-3-11-6z"/><path d="m935 869c-8-13 19-60 36-60 9 0 21 11 27 24 9 21 7 24-24 34-19 5-36 7-39 2z"/><path d="m374 845c-21-11-21-13 16-43 20-18 50-35 65-39 26-6 28-5 22 17-4 13-7 37-7 53 0 28 0 29-20 11-18-16-22-17-37-3-14 12-23 12-39 4z"/><path d="m1364 796c19-8 34-25 41-47 13-39 73-78 88-57 5 7 7-1 4-22-4-37 16-110 27-93 3 6 1 51-6 101-9 67-16 90-25 87-7-3-13-2-13 2s-29 16-64 25c-75 20-93 21-52 4zm85-26c7-5 9-11 5-14-5-3-15 1-22 9-14 16-5 18 17 5zm45-36c-4-8-8-15-10-15s-4 7-4 15 4 15 10 15c5 0 7-7 4-15z"/><path d="m908 604c-8-17-17-24-28-20-10 3-25 3-33-1-15-5-15-8-2-27 16-22 21-67 7-67-4 0-12 10-17 22-6 12-17 23-25 25-10 3-9 1 3-7 9-6 17-19 17-28-1-15-3-14-17 3l-16 20 8-20c8-24 16-55 18-75 1-8 5-17 9-20 3-3 8-19 10-35 2-21 11-33 31-42 15-7 27-17 27-23s5-8 11-4c8 5 10-3 5-28-5-29-2-38 21-60 52-48 108-63 132-34 9 11 6 15-15 20-14 4-35 4-46 1-19-7-58 18-58 36 0 12 40 5 84-14 42-19 56-16 37 7-10 11-9 15 6 18 22 5 63-11 63-25 0-6-5-6-13-1-7 5-4 1 7-9 13-12 28-16 45-12 14 3 46 7 71 9 25 3 69 8 98 12 43 5 56 3 73-12 23-20 82-29 76-11-2 7-10 13-18 13-32 3-33 5-19 14 13 9 13 10 0 10-8 0-26 12-39 26-21 22-30 25-60 19-98-18-142-15-121 10 8 9 5 11-13 8-19-4-27 3-44 39-12 24-25 57-29 73l-7 30-7-25c-7-20-14-14-12 10 0 3-17 13-39 22-24 10-39 12-39 6s-9-3-20 7-23 15-27 12c-8-9-32 23-33 43 0 13 1 13 10 0 7-11 10-2 10 32 0 38-4 48-20 53-11 3-20 11-20 16 0 19-31 8-42-16zm168-342c-6-6-36 9-36 19 0 5-6 6-12 2-7-4-10-4-6 1 4 4 2 15-5 24-6 8 5 2 25-14s36-31 34-32z"/><path d="m1725 579c-14-27-21-59-10-49 8 9 35 79 30 79-2 0-11-13-20-30z"/><path d="m2401 594c-1-15-3-17-10-7-15 25-19-9-8-76 9-50 8-65-2-71-9-6-10-10-2-15 6-4 9-12 6-17-4-5-1-9 4-9 6 0 11-7 11-15s-7-15-15-15-15-4-15-10c0-5 9-10 19-10 11 0 21-3 24-7 2-5 2-2 1 5-2 8 8 12 31 12 18 0 37 5 40 10 3 6 1 10-4 10-6 0-11 5-11 10 0 6 7 10 15 10s15 5 15 11c0 5-4 7-10 4-5-3-15-3-21 1-8 4-8 8 0 13 14 9 2 51-13 45-6-2-12 4-12 15s5 17 13 14c21-8 15 7-14 38-16 16-31 39-35 51-5 21-6 21-7 3zm49-205c0-11-4-20-10-20-5 0-10 9-10 20s5 20 10 20c6 0 10-9 10-20z"/><path d="m2025 579c3-5 10-10 16-10 5 0 9 5 9 10 0 6-7 10-16 10-8 0-12-4-9-10z"/><path d="m2095 579c-4-6-13-9-21-6s-14 1-14-4c0-6 5-10 11-10 5 0 7-4 4-10-4-6 6-10 22-10 26 1 27 2 10 14-13 10-15 15-5 19 7 2 10 7 7 11-4 4-10 2-14-4z"/><path d="m1615 539c-4-11-10-18-15-15-17 11-21-16-5-32 14-14 18-14 26-2 7 12 9 11 9-2 0-9 8-19 18-23 9-3 23-9 30-12 6-3 12-1 12 6 0 6-4 8-10 5-5-3-10-2-10 4 0 5 8 14 17 20 15 8 15 13 5 36-13 28-28 25-43-9-7-16-8-14-3 12 4 24 2 32-10 32-8 0-18-9-21-20z"/><path d="m2016 534c-3-9 0-15 9-15 8 0 15 5 15 11 0 5 5 7 12 3s8-3 4 4c-10 17-33 15-40-3z"/><path d="m1797 489c8-30 29-43 50-32 16 9 15 11-10 17-15 4-27 13-27 21s-4 14-9 14-7-9-4-20z"/><path d="m1436 463c-10-27-7-54 7-49 15 6 44-11 35-20-4-4-12-3-19 1s-26 9-42 11c-17 2-36 11-43 21-13 16-13 16-14 0 0-10-5-18-11-18s-9-10-7-22c2-17 12-24 33-28s31-12 33-27c3-19 6-21 22-10 14 8 18 18 14 34-5 19-2 23 19 23 15 0 32 9 41 22 19 27 20 38 3 38-7 0-23 9-35 20-26 24-28 24-36 4z"/><path d="m1741 417c0-15 4-30 10-34 12-7 29 13 29 35 0 10-3 11-14 2-11-10-15-8-19 6-3 12-5 9-6-9z"/><path d="m1940 424c7-8 16-15 21-15s9 7 9 15c0 9-9 15-21 15-18 0-19-2-9-15z"/><path d="m1980 415c0-9 5-16 10-16 6 0 15-10 19-22l9-23 10 25c11 28 7 35-25 45-17 5-23 2-23-9z"/><path d="m1530 386c0-7-22-27-50-45-48-32-61-54-40-67 6-4 7-11 4-17-4-6-2-8 4-4 6 3 17 0 25-8 7-8 25-14 38-14 13 1 38-3 55-7 29-6 32-4 42 24 7 19 7 33 1 36-5 4-9 13-9 22 0 12 3 13 13 4 11-8 16-5 25 14 9 20 9 25-3 25-7 0-16-4-20-9-3-6-14-9-24-8-13 1-17 7-13 22 5 18 4 19-14 5-12-9-11-7 2 6 13 12 20 25 17 28-12 11-53 6-53-7z"/><path d="m1940 359c0-13 12-19 26-13 21 8 17 19-6 19-11 0-20-3-20-6z"/><path d="m2043 362c-18-6-16-23 1-23s30 16 19 23c-5 2-14 2-20 0z"/><path d="m1700 337c0-6-3-9-6-5-18 18-54-67-54-126 0-25 5-37 14-37 16 0 26 30 26 78 0 20 5 32 13 32 17 0 42 45 33 59-9 15-26 14-26-1z"/><path d="m824 321c-6-4-14-25-17-47-4-22-4-33 0-25 3 8 13 20 21 26 16 12 13 57-4 46z"/><path d="m2413 311c-31-14-43-31-25-33 4 0 17-2 29-3 14-2 25 5 32 20 14 31 3 35-36 16z"/><path d="m864 295c-5-6-13-19-17-30-6-15-4-17 13-13 11 3 18 2 15-3-3-4 2-13 10-20 10-9 15-9 15-1 0 6-4 11-10 11s-6 9 0 24c10 29-8 52-26 32z"/><path d="m2334 267-29-33 33 29c30 28 37 36 29 36-2 0-16-15-33-32z"/><path d="m980 230c0-5 7-12 16-15 14-5 15-4 4 9-14 17-20 19-20 6z"/><path d="m1515 219c-3-6 1-13 10-16 21-9 26-2 10 13-9 8-16 9-20 3z"/><path d="m1390 174c0-2 5-16 12-30 12-27 24-32 30-14 3 8 10 8 26-2 17-11 24-11 34-1 9 9 9 12 0 12-6 0-9 6-6 14 3 9-7 15-33 19-45 8-63 9-63 2z"/><path d="m860 128c0-18 2-19 15-9 15 12 12 30-6 30-5 0-9-10-9-21z"/><path d="m795 109c-22-10-32-19-23-19 30-2 30-21-1-39-31-17-40-32-20-32 11 0 79 48 91 65 10 13 10 45 1 44-5 0-26-9-48-19z"/><path d="m470 90c0-34 196-109 221-84 8 8-3 13-43 18-50 7-127 32-138 44-17 19-40 32-40 22z"/></g><g fill="#669833" transform="translate(487 4)"><path d="m225 1813c1-47-35-129-55-126-26 3-32-2-33-26-2-18 3-25 17-25 10 0 19-4 19-10 0-5 7-10 15-10 18 0 20 20 3 20-7 0-5 5 5 11 13 7 21 6 32-5 17-17 20-46 4-46-5 0-7-4-4-10 3-5 1-19-5-31-9-16-8-24 5-39 10-11 15-26 11-36-5-14-4-15 9-4s14 10 9-4c-4-10-13-15-21-12s-28 6-44 6c-22 0-32 6-39 25-5 14-12 25-14 25-9 0 6-33 26-59 33-44 18-98-24-88-19 5-31 0-49-19-24-25-24-25-5-57 10-18 22-47 26-65 7-29 6-32-10-27s-19-2-25-62c-24-249-36-324-59-377-14-31-21-56-16-56s11-8 13-17c4-16 5-16 6 1 1 12 6 16 17 12 9-3 18-6 20-6s4-7 4-16c0-10-6-14-15-10-10 4-15-1-15-14 0-11-4-20-9-20-15 0-21-29-10-52 10-23 10-23 5 1-3 13-1 20 4 15 12-13 13-35 5-62-6-18-10-21-17-10-5 8-7-12-4-54 3-36 2-68-3-70s-5-12-1-22c6-18 8-16 20 11 15 33 34 34 58 5 10-14 12-13 12 6 0 13 6 25 14 28s12 13 9 24c-6 23 13 35 56 35 33 0 35 3 43 40 11 58 30 139 35 148 9 15 43-15 43-38 0-13 4-27 10-30 5-3 8-27 6-53-3-26-2-39 1-30 2 10 10 18 18 18 7 0 15 10 18 21 5 17 11 20 32 17 21-5 28-1 36 19 11 29 12 46 2 40-5-3-6 19-5 49l4 54-32-7c-30-6-32-5-21 15 6 11 16 24 21 27 13 8 13 61 0 86-18 33-1 41 36 18 19-11 40-18 47-16 8 4 7 6-3 7-8 0-31 15-52 33l-36 32 24 12c18 8 26 8 35-3 6-8 16-14 22-14s3 6-8 13c-10 8-15 19-11 25 11 17 36 15 36-4 0-8 5-12 10-9 6 3 10 16 10 29 0 32 10 38 34 23 25-17 86-30 86-19s-61 73-94 96c-36 24-71 103-55 122 17 20 25 18 62-17 30-29 32-30 35-10 5 31-66 151-88 151-10 0-22 5-26 11s-19 9-37 5l-30-6 8 52c5 29 9 76 10 103 1 28 3 66 5 85 3 57 1 80-10 80-5 0-10-8-10-17 0-10-4-14-8-8s-20 17-37 25c-23 12-31 23-33 50-1 19-5 42-8 50-4 13-6 13-15 0-9-12-10-12-5 3 3 10 6 23 6 28 0 6 5 7 11 3 7-4 10-1 7 7s-15 14-29 14c-15 0-25 7-27 18-7 34-21 16-20-26zm108-213c0-8-7-14-15-14-15 0-21 21-9 33 10 9 24-2 24-19zm26-86c-9-5-16-17-16-26s-11-22-25-29c-20-9-25-8-25 3 0 8 5 14 10 14 6 0 18 16 27 35 13 28 19 32 30 23 12-10 12-13-1-20zm4-153c0-38 3-45 19-45 11 0 23 5 26 10 10 17 25 11 25-10 0-11 5-28 11-38 9-15 5-27-22-65-18-26-40-49-50-52-9-3-20-18-24-33-10-39-7-162 4-176 11-13 3-63-11-72-20-12-39 18-32 52 10 53 1 65-35 51-32-12-38-34-32-104 1-15-4-23-14-23-8 0-15-8-15-19 0-10-9-30-20-44-25-31-25-41-1-34 18 4 18 3 2-24-10-19-23-28-36-27-14 2-19-2-17-14 1-9-2-19-8-23-19-12-10 52 11 76 18 21 18 25 5 35-18 13-23 104-6 104 6 0 10 6 10 14 0 7 10 25 21 40 18 23 21 37 17 84-3 31-9 65-13 75-6 13-2 17 18 17 14 0 27 6 30 14 5 12-29 69-50 85-5 3-28 30-52 60-42 51-44 54-26 67 28 20 38 18 75-21 41-42 49-43 48-6-1 41 9 53 34 40 14-8 19-18 15-35-2-13-1-24 2-24 13 0 59 60 65 85 10 41 26 29 26-20zm120-55c-13-8-12-10 3-10 9 0 17-4 17-10 0-5-9-10-19-10-17 0-20 11-12 38 1 1 7 2 14 2 8 0 7-4-3-10zm30-50c0-5-4-10-10-10-5 0-10 5-10 10 0 6 5 10 10 10 6 0 10-4 10-10zm-374-160c-6-67-22-120-36-120-4 0 0 37 8 83 17 99 19 107 28 107 4 0 4-31 0-70zm302-92c2-11-7-17-27-20-36-5-37-2-14 24 19 21 37 19 41-4zm42-8c0-5-7-7-15-4-8 4-15 8-15 10s7 4 15 4 15-4 15-10z"/><path d="m2207 1568c-57-53-61-61-67-112-6-52-5-53 7-26l14 30 7-32c8-38 25-43 25-8 0 32 10 56 22 56 7 0 9-21 5-60-4-37-3-60 3-60s10 6 10 14c0 7 7 19 15 26 9 7 15 26 13 44-4 62 2 97 14 90 8-5 9-2 4 11-4 11-2 22 6 27 9 5 5 8-11 8-23 0-23 1-7 25 26 40 6 29-60-33zm16-17c0-8-4-15-10-15-5 0-7 7-4 15 4 8 8 15 10 15s4-7 4-15z"/><path d="m1839 1429c-4-21-11-65-16-98-6-33-12-70-15-82-7-31 20-31 36-1 14 26 89 98 102 98 4 0 7-10 5-22-2-17 3-24 18-26 31-4 49 48 26 73-13 13-14 19-4 22 6 3 12 13 12 23 0 25 20 36 31 19 5-8 9-43 10-79l1-65 14 65c7 36 18 66 24 68 5 2 10 8 10 13 0 6-4 7-10 4-5-3-10 1-10 9 0 45-129-22-130-67 0-7-12-25-26-40-37-43-54-30-54 40 0 73-14 100-24 46z"/><path d="m2143 1378c0-11-7-28-16-36-13-14-13-16-1-16 16 0 34 56 23 67-3 4-6-3-6-15z"/><path d="m2113 1303c0-10 32-67 41-72 15-10 11 5-12 41-18 30-29 41-29 31z"/><path d="m2171 1300c-7-7 32-84 43-84 10 0 12-50 3-74-8-21-24-20-25 2 0 12-37-78-39-96 0-2-4-1-9 2s-12 22-15 42c-6 27-14 38-39 49-22 9-37 10-50 3-10-5-25-8-33-6-13 2-12 8 7 33 15 18 17 25 6 16-22-18-120-183-157-267-16-35-35-64-41-64-7 0-10-3-6-6 3-3-3-15-14-27-10-11-20-27-20-34-1-7-2-18-3-25 0-7-11-12-23-11-34 1-34 2-23 23 7 12 16 17 27 13s14-3 9 6c-5 7-14 10-22 7-17-6-17-2-4 44 9 31 50 74 50 51 0-5-7-11-15-15-8-3-15-17-15-30 0-19 4-24 15-20 11 5 13 10 5 19-8 10-6 17 7 27 22 16 23 40 4 52-10 6-18 3-28-10-12-17-13-17-14 2 0 10-6-4-13-33-13-51-91-193-106-193-5 0-15-6-22-14-12-11-16 3-26 93-15 126-29 180-54 204-10 10-18 22-18 27s-6 7-14 4c-11-4-16 4-18 27-2 18-8 34-15 36-18 6-33-31-38-94-3-50-6-58-24-57-11 0-18-3-15-8 3-4-2-8-10-8-9 0-16 7-16 15s-8 15-17 15c-15 0-16-2-3-10 13-9 13-10 0-10-8-1 0-7 18-15s32-22 33-32c0-16 1-16 9 2 7 16 9 17 9 3 1-9 5-20 11-23 15-10-1 28-18 43-20 15-5 15 53 0 25-7 45-16 45-20s6-5 13-2c9 3 16-20 25-87 7-50 9-95 6-101-10-16-31 56-27 93 1 19 0 29-3 22-6-14-28-8-68 20l-29 20 8-49c11-65 12-164 3-170-5-3-9 2-9 10-1 9-3 21-4 26-1 6-3 13-4 18-1 4-5 1-10-7-17-27-30-2-14 30 8 17 12 33 9 36-3 4-6 1-6-6 0-8-7-11-15-7-12 4-15-3-15-29 0-19-4-35-10-35-5 0-10-11-10-24 0-15-7-27-19-31-24-7-36-36-19-47 10-6 10-8 1-8s-13-16-13-46c0-33-3-43-12-38-7 4-4-2 6-14 16-19 17-22 3-22-21 0-26 10-29 53-2 24-6 32-14 26-6-5-14-6-17-2-4 3-7-1-7-11 0-9 5-14 10-11 12 7 12-2 0-30-8-19-9-19-9 0-1 15-3 17-13 6-11-10-10-15 4-25 10-7 15-16 11-19-3-4-1-7 5-7 7 0 12 10 12 23 0 17 2 19 9 8 5-8 8-22 6-32s1-22 7-25c7-4 8-2 4 4-4 7-2 12 3 12 6 0 11-4 11-9 0-9 39-7 101 4 30 6 39 3 60-19 13-14 31-26 39-26 13 0 13-1 0-10-14-9-13-11 19-14 8 0 16-6 18-13 6-16-78-6-94 12-4 4-2 5 6 0 9-5 12-4 7 3-8 13-54 16-80 6-9-3-16-15-16-25 0-17-3-18-20-7-18 12-19 13-2 20 19 7-93 0-120-8-10-3-28 1-40 8-13 7-27 11-31 10-5-1-6 2-2 8 5 8 11 7 21-1 8-6 14-7 14-2 0 14-41 30-63 25-15-3-16-7-6-18 19-23 5-26-37-7-44 19-84 26-84 14 0-18 39-43 58-36 11 3 32 3 46-1 21-5 24-9 15-20-22-27-96-9-128 30-7 9-17 14-21 11-5-3-7 15-6 40 1 26-1 40-6 33-5-10-8-8-8 5 0 10-12 23-28 30s-27 18-25 25c3 6 0 12-5 12-6 0-8 9-5 20s1 20-4 20-9 8-10 18c-2 27-12 64-19 71-4 3-4-2-1-11 4-12 2-15-9-11-10 4-14-2-14-21 0-16 6-26 14-26 12 0 14-12 7-38-1-1-10 2-20 8-14 7-22 7-26 0-4-6-11-7-17-4-7 4-8 2-4-4 4-7 23-12 42-12 41 0 46-21 9-38-17-8-23-16-18-28 5-13 3-15-8-9-8 4-4-2 9-14 23-22 30-51 12-51-5 0-10-4-10-10 0-5 18-8 40-6 33 3 38 1 29-10s-5-16 15-24l27-10-33-30c-18-17-25-27-15-24 12 4 17 1 17-12 0-11-4-24-8-29-12-17-80-65-91-65-20 0-11 15 20 32 17 10 28 22 25 27s-19-4-36-19c-24-23-38-28-74-27-24 1-42-1-39-5 2-5 16-8 31-8 26 0 22-13-8-23-8-2-3-3 12-1 19 2 28-2 31-14 4-16 5-16 6 0 0 9 11 20 24 24 12 4 37 18 56 33l33 25 19-23 19-23v26c0 16-4 25-10 21-15-9-12 2 8 32 9 15 11 24 5 20-9-6-13-1-13 13 0 16 4 20 18 16 12-4 26 2 38 16 10 12 14 18 8 15-7-4-14 0-18 8-3 8-3 15-1 15 13 0 61-27 68-38 9-14 47-31 85-38 16-3 21-1 17 7-6 8-2 8 14 0 17-10 21-9 21 4 0 11-13 15-52 16l-53 2 65 9c36 5 76 10 90 11s31 8 38 14c9 9 19 10 31 3 12-6 22-5 29 2 8 8 18 6 37-6 24-16 26-16 33 1 14 36 42 24 54-24s30-62 53-43c12 10 15 10 15-1 1-9 4-8 11 4 6 10 8 21 5 24-3 4-6 1-6-5s-7-9-15-6c-8 4-15 1-15-5 0-20-17-12-28 14-7 14-12 28-12 30 0 3 26 3 58 0 31-2 57-5 57-5 0-1 8-3 18-5 27-5 33-15 17-25-11-7-20-3-31 11-14 19-17 20-22 5-4-10-3-15 3-11 6 3 10 2 10-4 0-5-8-14-17-20-16-9-16-10 4-8 12 0 20 4 18 8-3 3 9 6 25 7 42 1 46-14 11-46-26-24-28-29-16-45 13-18 15-18 52 1 21 11 37 24 37 28-3 18 9 34 23 34 10 0 14-7 10-20-7-27 7-25 21 3 10 18 11 19 9 3-1-14 5-19 25-20 14-1 24 2 22 6-3 4 0 8 5 8 6 0 11-6 11-14s7-17 16-20c22-9 24-8 24 10 0 8 5 12 10 9 6-4 8-11 5-16-4-5-1-9 5-9s8 10 4 26c-4 17-2 29 7 35 8 5 9 9 3 9s-17-7-24-15-16-12-21-9-9-1-9-8c0-10-2-10-9 1-5 7-15 11-22 9-8-3-22 5-31 18-23 28-23 33 2 27 11-3 17-10 13-16-3-6-1-7 5-3 7 4 12 16 12 27s-4 18-9 15c-8-5-7 10 2 59 3 17 48 52 70 54 12 1 8-37-5-46-7-4-21-22-30-40-13-25-13-31-2-26 8 3 14-1 14-8 0-10 3-10 12-1 10 10 10 15-2 22-12 8-12 10-1 10 17 0 52-40 45-51-3-5 2-6 10-3 9 3 16 10 16 15s5 9 11 9 9-9 6-20-2-20 3-20c12 0 19 27 10 36-5 5-5 15 0 24 8 13 10 12 10-4 0-15 3-16 15-6 8 7 13 16 10 20-3 5-1 11 5 15s8 10 5 15-1 11 5 15c5 3 10 17 10 31 0 19 5 24 24 24 13 0 26 7 30 15 8 21 29 19 43-4 9-14 9-23-3-39-9-13-11-23-4-27 5-3 10-1 10 6 0 6 8 9 20 6 10-3 19-2 18 2-1 3 1 13 5 21 3 8 8 25 10 38 5 20 3 21-10 10-13-10-17-10-21 0-2 7-11 19-20 28-13 13-13 17-2 24 17 11 33 2 24-12-4-7-2-8 4-4 7 4 12 14 12 22s9 14 20 14c29 0 26 38-6 65-17 14-22 25-15 29 6 4 11 2 11-3 0-6 9-11 20-11 19 0 20 7 21 143 0 78 3 136 6 130 16-42 95 27 99 87 1 19 5 49 9 65 4 20 3 26-3 16-13-18-23 0-22 41 0 18-2 48-6 67-6 29-4 33 10 28 13-5 16 0 16 29 0 19-4 33-9 29-5-3-11 9-13 27-2 19-8 32-15 31-6-2-21 8-31 22-11 13-22 22-24 19zm-39-366c1-16 6-28 13-28 9 0 9-3 0-12-7-7-12-36-12-66 0-33-4-51-10-47-5 3-10 2-10-3 0-6 7-12 15-16 8-3 15-11 15-18 0-9-3-8-10 2-8 12-10 11-10-7 0-14-6-23-15-23-8 0-15 6-15 14 0 7-7 19-15 26-12 10-15 10-15-3 0-8 6-17 13-20 7-2 0-10-16-17-20-10-26-18-21-32 3-10 1-18-4-18-16 0-32-46-19-59s-6-14-36-2c-17 6-17 8-3 20 18 15 12 31-12 31-22 0-45-47-27-54 7-2 15-13 17-24 4-15 1-19-16-18-26 2-48-26-39-51 3-10 2-15-3-10-8 8-14 53-15 120 0 23-7 30-29 29-3 0-12 7-20 16-13 14-12 15 3 9 13-5 16-1 15 18-1 14-6 25-11 25s-6 14-2 30c7 32-9 65-26 54-5-3-9-1-9 4 0 17 31 35 61 35s39 11 17 21c-7 3-5 4 6 3 14-1 21 8 31 43 24 90 57 129 106 128 22-1 38 5 48 19 15 20 17 19 38-36 12-31 22-68 22-83zm-159 128c0-2-6-9-13-15-10-8-14-7-14 4 0 8 6 15 14 15 7 0 13-2 13-4zm-215-383c-17-40-45-75-30-38 4 11 8 28 9 37 0 9 3 15 7 12 4-2 9 3 13 11 3 8 8 15 11 15s-2-17-10-37zm349 15c-4-6 4-19 17-29l24-19h-28c-16 0-26 4-22 10 3 6 2 10-3 10-11 0-23 36-15 44 9 9 33-6 27-16zm-34-8c0-5-4-10-9-10-6 0-13 5-16 10-3 6 1 10 9 10 9 0 16-4 16-10zm-404-52c-5-26-4-28 3-12 15 34 30 37 43 9 10-23 10-28-5-36-9-6-17-15-17-20 0-6 5-7 10-4 6 3 10 1 10-5 0-7-6-9-12-6-7 3-21 9-30 12-10 4-18 14-18 23 0 13-2 14-9 2-8-12-12-12-26 2-16 16-12 43 5 32 5-3 11 4 15 15 3 11 13 20 21 20 12 0 14-8 10-32zm410 10c4-7 3-8-4-4s-12 2-12-3c0-6-7-11-15-11-9 0-12 6-9 15 7 18 30 20 40 3zm-246-42c0-8 12-17 27-21 25-6 26-8 10-17-12-6-22-6-31 2-17 13-28 50-15 50 5 0 9-6 9-14zm-338-36c12-11 28-20 35-20s13-3 13-8c0-17-32-52-48-53-11 0-12-2-4-6 6-2 10-9 6-14-8-13-22-11-27 4-2 6-3 3-1-8 2-12-5-26-16-33-18-11-20-9-21 10 0 22-1 22-8 3-5-11-7-23-4-27 6-12-35-10-42 2-3 5-12 7-20 4-9-4-13 1-12 15 1 16 8 21 32 22 28 0 28 1 8 9-23 9-33 50-13 50 6 0 10 8 10 18 1 15 2 15 13 1 7-9 24-19 39-22 22-6 26-4 22 8-6 16 3 65 12 65 2 0 14-9 26-20zm108-7c0-5-4-14-9-21-7-11-9-11-14 1-3 8-3 18 0 21 9 8 23 7 23-1zm186-32c11 9 14 8 14-2 0-22-17-42-29-35-6 4-10 19-10 34 1 18 3 21 6 9 4-14 8-16 19-6zm204 4c0-8-4-15-9-15s-14 7-21 15c-10 13-9 15 9 15 12 0 21-6 21-15zm61-14c4-3 2-17-3-31l-10-25-9 23c-4 12-13 22-19 22-5 0-10 7-10 16 0 11 6 14 23 9 12-4 25-10 28-14zm-421-21c-6-10-16-17-23-14-7 2-22-6-33-18l-19-23 24 20 24 20-5-20c-4-15 0-21 13-22 10-1 21 2 24 8 4 5 13 9 20 9 12 0 12-5 3-25-6-13-14-22-18-20s-7-2-7-10c0-22 15-18 22 6 4 11 9 18 13 15 8-8-19-56-28-51-5 3-11-7-14-21-6-24-10-26-39-19-18 4-43 8-56 7-13 0-31 6-38 14-8 8-19 11-25 8-6-4-8-2-4 4 3 6 2 13-4 17-21 13-8 35 40 67 28 18 50 39 50 46 0 8 12 12 35 10 19-1 37 1 41 5 13 13 15 7 4-13zm370-31c0-10-27-19-34-12-11 12-6 19 14 19 11 0 20-3 20-7zm-254-20c9-14-16-59-33-59-8 0-13-12-13-32 0-48-10-78-26-78-9 0-14 12-14 37 0 59 36 144 54 126 3-4 6-1 6 5 0 15 17 16 26 1zm-421-19c-6-29-15-41-26-35-14 9-11 25 6 25 8 0 14 3 14 8-2 11 1 22 5 22 3 0 3-9 1-20zm-465-17c0-12-5-25-10-28-6-4-8-10-5-15 3-4-2-11-11-14-13-5-15-1-10 18 4 15 0 28-9 36-20 16-11 28 20 26 19-1 25-7 25-23zm899-35c-8-16-14-19-17-9-2 7 2 24 9 39 11 19 15 21 17 9 2-9-2-26-9-39zm-849-3c-6-16-5-25 3-28 14-5-9-37-26-37-6 0-3 6 8 13 13 10 15 16 6 21-6 4-9 11-6 16 3 4-4 6-15 3-17-4-19-2-13 13 12 31 27 43 40 32 8-6 9-17 3-33zm1007-20c1-5-2-17-7-25-9-13-12-13-21 3-5 9-19 17-29 17-11 0-20 5-20 11 0 13 72 8 77-6zm-897-20c11-13 10-14-4-9-9 3-16 10-16 15 0 13 6 11 20-6zm547-12c5 3 10 0 10-8s-3-13-6-11-14 6-24 9c-10 4-15 12-11 18 5 8 9 8 14-1 4-7 12-10 17-7zm279-2c-3-5-14-11-25-14-14-3-18-1-14 9 3 8 14 14 25 14 10 0 17-4 14-9zm32-39c2-7-3-12-12-12s-16 7-16 16c0 17 22 14 28-4z"/><path d="m1933 809c1-18 18-35 24-24 4 6 4 16 1 21-7 12-25 13-25 3z"/><path d="m1990 799c-4-3-7-16-7-29 0-38-10-52-32-46-15 4-19 2-14-7 5-7 10-10 13-7s14 1 25-5c20-11 48-2 29 10-7 5-8 17-2 38 9 30 1 60-12 46z"/><path d="m2034 1259c0-6-4-20-7-30-5-14-4-15 5-7 7 7 11 20 8 30-3 11-5 14-6 7z"/><path d="m1043 1147c0-17 4-32 8-35 5-3 6 8 4 25-3 21 0 29 11 29 8 0 18-6 20-12 3-8 6-6 6 5 1 12-7 17-24 17-21 0-25-5-25-29z"/><path d="m1784 1136c-1-19-8-64-16-100-19-86-19-89 6-83 12 4 25 0 31-8 7-10 8-1 5 29-3 25 0 57 8 76 9 20 10 37 4 47-7 11-9 10-9-5 0-32-13-9-21 37-6 42-7 42-8 7z"/><path d="m1158 1093c-6-42-9-47-14-27-6 22-8 23-14 7-4-10-7-30-7-44 0-28-43-68-75-68-13-1-19-7-19-18 1-9-1-15-5-13-3 2-12-2-19-10s-8-14-3-14c6 0 7-8 4-17-13-33-26-41-55-32-16 4-28 5-28 1s-7 2-15 12c-17 23-20 14-5-15 6-10 18-19 26-19 10 0 14-6 10-15-3-8-1-15 4-15 6 0 10 6 10 13s14 18 30 24c18 7 30 18 30 30 0 26 60 66 77 51 8-6 10-14 5-17s-11-14-15-23c-4-12-2-15 8-12 9 4 13-1 11-12-2-10-8-20-14-22-16-5-15-32 0-32 9 0 9-3 0-12-19-19-14-37 8-31 21 6 25 15 35 81 4 23 11 42 15 42 15 0 22-41 9-56-6-8-8-18-4-22s10-1 12 6c3 7 11 19 19 26 8 8 14 19 14 25s6 10 13 8c8-1 13 13 14 43 1 42 1 42-6 10-5-29-8-32-14-16-7 19-8 19-22 0-17-23-18-19-6 22 5 17 5 37 1 44-9 15 10 41 24 32 5-3 6 3 2 14-4 10-10 41-13 67-8 65-19 67-28 4zm-12-107c-3-12-8-19-11-16-5 6 5 36 12 36 2 0 2-9-1-20z"/><path d="m2653 1115c0-9-3-31-7-50-6-29-5-31 9-18 9 8 14 16 12 18s1 9 6 16c6 8 5 18-5 31-12 16-14 16-15 3z"/><path d="m2414 1003c-7-20-10-43-8-50 3-6 6-2 6 10 1 12 6 25 12 29 9 5 10-6 7-39-4-34-2-44 7-41 16 6 55-47 55-74 0-26 9-32 35-22 11 4 30 4 42-1 14-5 23-4 27 4 2 7 5 2 5-10 1-12 6-25 13-29s8-3 4 4c-4 6-2 19 3 29s12 26 15 36 11 15 17 11c8-5 8-1 0 14-13 25-30 36-39 27-3-3 0-10 8-15 10-6 11-10 3-10-7 0-10-6-7-14 7-19-30-38-60-30-22 5-68 44-53 44 3 0-7 15-24 32-16 18-29 42-29 53-1 11-7 34-14 50l-13 30z"/><path d="m2632 1006c-3-20-4-25-12-37-11-18 1-33 20-26 13 5 15 2 11-15-4-12-2-22 3-22 15 0 10 47-5 53-9 3-12 15-9 31 3 14 3 26-1 26-3 0-7-4-7-10z"/><path d="m938 976c-10-16 5-50 21-50s19 16 3 25c-6 4-8 13-5 21 6 16-10 19-19 4z"/><path d="m653 966c-14-3-42-6-62-5-21 1-38-2-38-7s-5-6-11-2c-8 5-8 1 0-13 6-11 8-23 5-26s4-10 15-16c16-9 28-8 51 4 16 8 29 19 29 23-4 22 4 31 29 34 15 2 23 6 17 9-5 3-21 3-35-1z"/><path d="m2759 925c-7-49-3-69 10-56 10 9 13 96 4 102-4 2-11-18-14-46z"/><path d="m702 950c-6-7-4-28 5-57 7-25 11-49 8-52-4-3 1-3 10 0 12 5 18 0 21-17 3-15 5-11 6 14 1 36-13 60-22 36-2-7-2-1 0 14 2 14-1 29-6 33-16 9-13 25 3 25 8 0 17 4 21 9 8 14-34 9-46-5z"/><path d="m499 897c4-15 1-27-7-32-11-7-11-9-1-9 18 0 25 26 12 47-9 16-10 15-4-6z"/><path d="m843 907c0-5 5-13 10-16 6-3 10-2 10 4 0 5-4 13-10 16-5 3-10 2-10-4z"/><path d="m773 861c-6-8-9-19-5-25 10-15 24-3 22 20-2 24-1 24-17 5z"/><path d="m1503 841c0-8 2-15 4-15s6 7 10 15c3 8 1 15-4 15-6 0-10-7-10-15z"/><path d="m2388 808c-3-26-8-55-10-64-2-10 1-21 6-24 6-3 7-15 4-27-6-21-6-22 9-3 12 15 16 16 17 5 0-8 4-6 9 6 8 20 9 20 9-1 1-11 14-34 31-50 31-30 39-50 17-41-8 3-13-3-13-14 0-12 5-18 13-15 7 3 13-2 14-12s4-7 8 8c4 14 4 38-1 55-4 16-8 52-8 80 0 74-7 88-55 117l-44 27z"/><path d="m623 816c-12-8-10-10 8-10 13 0 20 4 17 10-7 12-6 12-25 0z"/><path d="m887 818c-5-4-7-20-4-37 6-31 17-24 25 15 4 22-6 32-21 22z"/><path d="m2516 791c0-8 9-17 19-21 10-3 24-11 30-17 15-15 89-35 106-29 20 6 14 32-7 32-11 0-23 5-26 10-4 6-10 8-15 5-4-3-13 2-20 10-8 10-22 13-39 9-20-4-23-3-11 5 12 9 10 11-11 11-16 0-26-6-26-15z"/><path d="m1143 782c0-15 27-29 34-18 3 5-4 13-15 20-15 10-19 10-19-2z"/><path d="m853 757c0-17-4-22-16-17-8 3-12 2-9-3s0-13-5-16c-7-5-5-12 7-20 17-13 17-14-2-29-17-13-20-13-23 0-4 18-12 18-41-2-15-11-26-13-33-6-6 6-20 5-39-5-24-12-33-12-45-3-12 11-13 10-8-4 3-9 11-16 18-16 6 0 4-5-4-10-11-8-7-9 15-4 17 4 35 14 42 23 8 11 12 12 13 3 0-8 10-11 29-7 27 5 29 3 27-22-3-22-9-28-27-29-13-1-31 3-39 8-12 7-10 8 7 5 12-3 27 1 34 9 15 18-11 19-57 2-32-11-55-38-33-38 6 0 6-6 0-18-11-22-11-62 1-62 27 0 44 24 40 57-4 32-3 34 14 25 11-5 25-7 32-5 7 3 10-1 6-10-3-8-15-18-27-21s-18-8-14-12c10-11-23-44-43-44-10 0-23-7-30-15-8-9-8-15-2-15s13 5 15 10c3 6 4 5 3-2s-19-16-39-21c-31-8-41-5-70 17-35 27-53 34-42 16 3-5 2-10-3-10s-8-10-7-22c1-19 7-22 28-20 16 2 34-5 46-17 21-21 62-21 104 1 18 9 24 38 7 38-5 0-10 5-10 10 0 6 11 10 25 10 18 0 25 5 25 20 0 12 10 25 25 32 13 6 22 15 18 21-3 5-1 12 4 16 5 3 19 21 32 39 22 31 24 32 37 15 12-16 13-17 14-1 0 9-8 22-17 28-12 8-13 10-3 7 8-2 20-14 27-27 11-23 13-23 19-5 5 11 1 30-9 47-9 15-12 28-7 28 11 0 50 40 50 51 0 4-8 6-17 5-10-2-18-8-18-14s-6-17-12-23c-10-10-13-10-13 2 0 8 5 20 11 26 8 8 8 16 0 30-10 16-10 16-11-6zm-190-325c0-4-59-36-67-36-12 0 1 17 20 26 23 12 47 17 47 10z"/><path d="m943 757c0-7-9-21-20-33-22-23-26-38-11-38 5 0 13 9 16 21 4 11 16 24 27 28 18 6 18 8 4 20-11 10-16 10-16 2z"/><path d="m2735 736c0-14 2-19 5-12 2 6 2 18 0 25-3 6-5 1-5-13z"/><path d="m990 714c12-6 24-18 26-27 3-11 5-9 6 5 1 21-17 35-42 33-7 0-2-5 10-11z"/><path d="m1203 711c0-8 5-15 10-15 6 0 10 7 10 15s-4 15-10 15c-5 0-10-7-10-15z"/><path d="m2682 697c-1-3-2-13-3-21 0-8-21-28-45-44-25-16-39-32-32-34 6-2 18 2 26 8 12 10 15 9 15-3 0-8-7-17-15-21-8-3-15-11-15-18 0-15 87 77 105 112 12 23 11 25-11 26-13 1-25-1-25-5z"/><path d="m1083 671c-5-14-14-25-20-25-14 0-13-26 3-37 8-6 20-6 35 2 19 10 20 13 7 19-13 5-14 10-4 27 9 17 8 20-2 14-9-6-11-3-6 8 3 10 4 17 1 17-2 0-9-11-14-25z"/><path d="m1184 661c-13-14-22-28-19-30 9-9 74 31 70 43-6 19-25 14-51-13z"/><path d="m661 669c6-2 18-2 25 0 6 3 1 5-13 5s-19-2-12-5z"/><path d="m1145 661c4-4 3-14-3-22-7-8-8-13-1-13 15 0 23 28 9 36-7 4-9 4-5-1z"/><path d="m994 626c-1-24 22-46 46-44 12 1 20-2 18-7-3-4-1-10 5-14 5-3 10-1 10 5 0 8 6 8 20 0 29-15 80-21 80-8 0 5-7 7-16 4-9-4-22-2-28 3s-15 10-21 12c-5 1-23 8-40 15-16 7-33 10-37 8-5-3-8 5-8 18 0 17-3 19-9 9-7-11-9-11-14 0-4 11-6 11-6-1z"/><path d="m619 607c-3-5 1-11 9-15 8-3 15-1 15 4 0 13-18 22-24 11z"/><path d="m2406 581c0-22 2-30 4-17 2 12 2 30 0 40-3 9-5-1-4-23z"/><path d="m588 576c-18-8-17-9 8-9 15-1 27 4 27 9 0 12-8 12-35 0z"/><path d="m2343 543c0-16-4-36-9-46-7-13-5-17 10-17 10 0 19 4 19 8s12 8 28 7c24 0 25-1 7-9-24-10-59-50-51-57 3-4 15 6 27 20 11 15 27 27 35 27s14 7 14 15c0 9-9 15-25 15-14 0-25 6-25 13 0 8-4 7-11-3-9-12-10-11-6 6 2 12 1 28-4 35-6 10-9 6-9-14z"/><path d="m2373 546c0-5 10-15 23-21 22-12 22-12 3 10-21 23-26 26-26 11z"/><path d="m2453 496c0-11 5-20 10-20 6 0 10 9 10 20s-4 20-10 20c-5 0-10-9-10-20z"/><path d="m2511 509c-22-5-23-19-4-26 8-3 16 2 19 14 3 10 4 18 4 18-1-1-10-3-19-6z"/><path d="m335 486c-14-23-16-60-2-60 9 0 26 67 18 75-2 2-9-5-16-15z"/><path d="m305 441c0-16 2-22 5-12 2 9 2 23 0 30-3 6-5-1-5-18z"/><path d="m453 452c0-2 7-6 15-10 8-3 15-1 15 4 0 6-7 10-15 10s-15-2-15-4z"/><path d="m2403 441c0-9 6-12 15-9 8 4 15 10 15 15s-7 9-15 9-15-7-15-15z"/><path d="m1040 415c7-9 9-20 5-24-4-5-1-5 6-1 6 4 12 3 12-2 0-10 30-25 36-19 2 1-14 16-34 32s-31 22-25 14z"/><path d="m304 390c-2-19 23-34 39-24 12 8 11 10-7 10-12 0-24 6-26 13-4 7-6 8-6 1z"/><path d="m2463 388c0-5-19-7-41-5l-42 4 6-38c3-21 8-46 12-56 5-13 3-16-8-12-10 4-16-2-20-22-3-15-4-30-2-31 7-7 50 32 71 63 20 31 41 105 29 105-3 0-5-4-5-8z"/><path d="m2304 362c-7-8-8-17-3-20 6-3 13 1 16 10 9 23 2 28-13 10z"/><path d="m2339 367c-4-5-2-12 3-15 5-4 12-2 15 3 4 5 2 12-3 15-5 4-12 2-15-3z"/><path d="m56 330c-8-4-6-11 8-25 24-24 28-24 24-1-2 9-4 20-4 25-1 8-10 8-28 1z"/><path d="m279 319c-7-8 19-56 40-74 16-13 16-12 5 9-13 25-9 28 12 8 8-9 24-12 37-9 21 6 20 7-11 21-19 8-37 14-41 14-5-1-8 4-8 12 0 15-24 28-34 19z"/><path d="m205 261c-1-17 3-25 14-25 8 0 12-4 9-10-3-5-2-10 4-10 20 0 21 20 2 31-10 7-17 19-14 26s1 13-4 13-10-11-11-25z"/><path d="m613 272c0-9 8-16 20-16 18 0 19-3 10-21-6-11-19-19-28-17-9 1-22-1-29-5-6-4-14-3-18 3-9 15-28 12-19-2 4-8 3-10-2-5s-9 14-9 20c0 7-19 14-41 18-50 6-51-15-2-25 21-4 29-10 24-21-3-8-1-15 5-15 5 0 9-6 7-13-2-6 8-23 21-36 14-14 21-31 19-44-3-17 1-22 19-23 21-2 28 7 24 29-1 5 3 6 9 2 5-3 17-2 26 3 13 7 10 10-16 15-18 4-37 4-43 0-6-3-7-1-3 5 4 7 1 12-6 12s-22 8-33 17l-20 15 20-5c11-2 29-8 40-12 17-6 16-5-3 10l-23 17 21 15c16 12 24 12 35 3 12-10 18-10 30 0 17 14 50 6 40-10-3-5-2-10 4-10 5 0 12 4 16 9 3 6 20 8 37 6 18-2 36 2 45 11 16 15 15 15-49 16-29 0-51 7-68 22-52 46-60 50-60 32zm-10-176c0-5-4-10-10-10-5 0-10 5-10 10 0 6 5 10 10 10 6 0 10-4 10-10z"/><path d="m1360 260c2-7 11-10 19-7 19 7 18 10-5 16-13 3-18 1-14-9z"/><path d="m260 236c3-11 9-17 15-14 5 3 4 12-3 20-16 19-18 18-12-6z"/><path d="m1859 191c-11-8-17-17-14-20 2-3 13 4 23 15 21 23 18 25-9 5z"/><path d="m621 139c6-2 18-2 25 0 6 3 1 5-13 5s-19-2-12-5z"/><path d="m500 109c5-13 2-15-11-10-47 18-66 19-66 3 0-11 9-16 26-16 15 0 32-7 38-15 10-13 16-11 46 15l35 31-27-4c-16-2-28 0-28 4 0 5-4 9-10 9-5 0-6-8-3-17z"/><path d="m282 67c12-22 20-25 45-15 22 9 20 27-3 21-10-2-26 0-35 5-16 9-16 7-7-11z"/><path d="m413 10c0-8 5-12 10-9 6 4 8 11 5 16-9 14-15 11-15-7z"/></g><g fill="#92773f" transform="translate(384 290)"><path d="m2074 2989c-40-20-47-33-23-43 8-3 15-12 15-20 0-9 21-21 53-31 28-10 69-28 89-41 21-13 41-24 46-24s14-11 20-25c10-22 61-57 79-54 4 0 18-21 32-47 14-27 31-55 38-62s13-23 13-35 5-29 10-37c8-12 14-9 37 18 25 30 103 62 103 43 0-11 54-39 68-34 6 3 13-1 14-9 0-7 2-17 3-23 2-5 3-21 4-35 2-23 3-24 15-7 46 60 75-50 34-134-18-38-40-149-29-149 10 0 49 117 80 243 17 66 35 125 42 133 16 20 37 17 44-6 7-22 13-24 35-10 19 12 63-37 79-90 7-22 16-38 21-35 6 4 10 2 10-4 0-5-4-11-8-13-5-1-16-55-25-118-16-112-24-155-27-155-1 0-4-11-6-25-3-13-11-28-19-33-8-4-15-15-15-23s-5-12-11-8c-7 4-9 30-6 73l6 66-26-55c-14-30-27-64-28-75-3-19-29-97-46-140-5-11-13-39-19-62-6-24-13-43-16-43-4 0-3 7 0 16 3 8 2 12-4 9s-10-15-10-26c0-10-4-19-10-19-5 0-10-6-10-13 0-22-24-66-39-72-11-4-13 3-8 38 3 23 9 52 12 62 6 21-5-1-36-72-11-24-22-42-27-41-4 1-21-11-38-27-17-17-47-42-67-58-25-19-40-40-48-70-6-23-17-58-24-77s-18-70-25-113c-11-67-15-77-31-72-12 4-22-1-29-15-9-17-8-20 12-20 16 0 19-3 10-8-8-5-10-16-6-27 5-13 4-16-4-11-12 7-18-28-14-90 2-18-4-37-13-44-8-7-15-19-15-26 0-8-4-14-10-14s-7 23-3 60c4 39 2 60-5 60-12 0-22-24-22-56 0-35-17-29-26 9-6 31-7 31-15 9-5-13-6-34-3-47 3-14-1-38-10-56-15-30-15-34 4-63l20-31v26c0 37 10 42 32 14 10-14 25-24 31-22 7 1 13-12 15-31 2-18 8-30 13-27 5 4 9-10 9-29 0-29-3-34-16-29-14 5-16 1-10-28 3-19 6-51 6-71s4-39 10-43c5-3 10-1 10 5s4 9 9 6c5-4 7 2 4 13-3 10 0 22 6 25 6 4 11 20 11 36s4 40 9 53c16 40 16 153 1 149-10-2-12 19-6 105 6 100 21 163 38 163 8 0 68-73 98-120 12-19 20-27 16-17-3 9-2 17 3 17 9 0 36 90 47 160 6 42 7 44 17 20 10-25 10-25 18 10 5 19 10 45 11 58 1 12 6 22 9 22 4 0 13 17 19 38 17 53 53 126 68 135 6 4 12 15 12 22 0 8 6 15 13 15s29 29 48 65c18 36 37 65 41 65s32 20 63 45c30 25 55 41 55 35 0-21 18-9 30 20 7 17 16 30 20 30s25 25 45 55c37 53 58 69 35 25-6-12-9-24-7-26 3-3 19 20 37 50 17 31 36 56 41 56s9 5 9 11c0 5 11 34 24 62 13 29 29 78 36 109 8 40 15 55 24 52 8-3 16 2 20 12 5 13 2 15-14 11s-20 0-20 20c0 17 4 23 13 20 17-6 19 5 19 125-1 138-44 281-110 360-28 33-94 68-127 67-15 0-11-4 13-15 37-16 39-24 12-49-16-14-38-19-93-20-40-1-78-4-83-7-27-16-86-18-120-3-48 20-121 20-141-1-14-14-18-12-40 20-13 20-32 36-41 36-10 0-27 7-38 15-16 12-17 16-5 24 22 14 50 5 79-26l27-28 3 24c4 24-14 70-33 83-16 12-123-3-162-23-20-10-39-16-43-14-8 5-101 27-208 49-69 14-83 23-62 36 26 17-3 9-42-11zm1202-610c0-5-4-9-10-9-5 0-10 7-10 16 0 8 5 12 10 9 6-3 10-10 10-16zm-380-317c0-10-7-19-15-19-27 0-18 27 13 36 1 1 2-7 2-17z"/><path d="m2732 2900c2-29 5-54 6-55 2-1 19-5 40-9 36-7 36-7 43 35 5 30 3 44-6 51-9 6 2 7 31 4 37-5 40-4 16 4-15 5-52 12-81 15l-53 7z"/><path d="m2934 2913c12-2 30-2 40 0 9 3-1 5-23 4-22 0-30-2-17-4z"/><path d="m1296 2875c-84-30-267-75-304-75-20 0-20 0 0 15 17 13 14 13-26 1-25-7-76-23-115-34-56-17-198-33-311-35-6 0-9-9-6-19 2-10 0-18-6-16s-17-5-24-15c-19-25-91-38-115-22-10 7-49 15-88 19-177 17-177 17-171 38 5 20 5 20-17 0-12-10-35-22-51-26-38-9-78-36-54-36 12 0 15-6 10-22-4-15-2-19 7-13 7 4 30 8 52 9 34 2 38 0 33-16-6-21-1-22 26-8 15 8 21 6 29-7 10-17 12-16 30 5 25 29 41 28 41-3 0-17 5-25 18-25 25 0 42-19 42-47 0-17 4-21 16-16 10 4 22-1 30-11 10-15 15-15 34-4 18 11 22 11 30-3 6-9 21-20 34-23 14-3 28-15 31-26 10-30 17-25 48 33 38 73 117 164 173 201 36 23 60 31 100 33 29 1 62 7 73 13 27 14 89 10 96-8 3-10 12-6 32 13 16 14 44 30 63 35 29 8 40 7 63-11 28-20 47-18 47 5 0 7 11 23 25 36 21 19 29 22 43 13 13-7 30-6 66 5 47 15 49 15 66-6 10-12 28-63 41-114 22-91 23-92 35-63l13 30 1-26c0-15 7-29 15-33 8-3 15-15 15-26s4-20 8-20c5 0 14-29 21-65 7-35 19-69 27-76 15-12 14-14 20 51 4 51 15 80 29 80s25-22 25-50c0-10 6-30 14-45l14-27 17 57c27 93 63 165 120 242 30 40 55 74 55 77 0 2-9 6-21 9-16 4-18 3-9-8s4-13-32-10c-24 2-56 6-73 8-16 3-33 0-37-6-4-7-11-7-21 2-9 6-54 13-104 16-95 4-120 10-143 36-21 23-59 29-100 14zm-680-145c12-8 9-10-13-10-16 0-26 4-22 10 8 12 16 12 35 0zm-16-63c14-14 10-37-7-37-13 1-57 35-57 44 0 11 51 6 64-7z"/><path d="m1062 2849c6-11 31-12 37-1 3 4-6 8-19 8-13 1-21-2-18-7z"/><path d="m1026 2840c-13-8-12-10 3-10 9 0 17 5 17 10 0 12-1 12-20 0z"/><path d="m1602 2356c3-9 13-16 22-16 8 0 13 1 11 3-2 1-12 9-22 16-15 12-17 12-11-3z"/><path d="m372 1636c3-9 11-16 16-16 13 0 5 23-10 28-7 2-10-2-6-12z"/><path d="m348 1620c0-14 2-19 5-12 2 6 2 18 0 25-3 6-5 1-5-13z"/><path d="m278 1590c-24-32-55-149-46-173 3-8 16-14 30-14 32 0 67 63 66 121-1 22 4 43 10 47s3 14-11 28c-11 11-22 21-24 21s-13-13-25-30z"/><path d="m383 1498c-4-12-4-24-2-27 3-2 5 1 5 8s5 9 10 6c6-3 10 1 10 9 0 25-17 27-23 4z"/><path d="m513 1413c-4-3-7-20-7-36 0-38 6-32 13 11 5 33 5 36-6 25z"/><path d="m2312 1265c-3-8-1-15 4-15 6 0 10 7 10 15s-2 15-4 15-6-7-10-15z"/><path d="m2462 1193c-3-3-6-45-6-93s-5-102-11-120c-9-24-9-61 2-154 12-112 14-118 23-85 9 29 14 34 23 24 6-7 13-25 16-41 2-16 4 23 5 86 0 63 8 153 16 200 18 99 18 100 9 99-22-4-31 5-43 42-14 42-23 53-34 42z"/><path d="m1535 900c-1-30-3-46-6-35s-10 25-15 30c-8 7-9 4-5-8 4-11 3-16-3-12s-10 12-9 18c3 27-2 47-11 47-13 0-13-39 2-188 9-94 15-122 26-120 9 2 15 22 18 61 4 68 19 101 40 93 11-4 14-1 10 12-2 9-8 40-11 69-4 28-13 60-21 70-12 16-14 12-15-37z"/><path d="m1596 806c0-13-3-38-7-56-5-28-4-32 10-27 10 4 18-1 22-13 8-25 34-35 28-9-3 10-9 17-13 14s-13 22-19 55c-12 62-21 77-21 36z"/><path d="m2052 764c-5-14-4-15 9-4 17 14 19 20 6 20-5 0-12-7-15-16z"/><path d="m1512 534c5-58 3-78-14-112-13-27-16-44-10-48s14 0 19 7c5 8 9 11 10 7 1-5 3-12 4-18 1-5 3-17 4-26 0-8 5-13 9-10 14 9 1 204-17 246-8 20-9 10-5-46z"/><path d="m2254 33c-17-4-34-33-19-33 4 0 16 9 26 20s16 19 14 19c-2-1-11-3-21-6z"/></g><g fill="#70b540" transform="translate(473 60)"><path d="m257 1415c-7-9-8-15-2-15 5 0 12 7 16 15 3 8 4 15 2 15s-9-7-16-15z"/><path d="m451 1295c16-9 34-14 40-11 6 2 3 5-6 5-10 1-18 6-18 11 0 6-10 10-22 10-21 0-20-2 6-15z"/><path d="m546 1206c17-29 31-63 31-75 0-11 5-21 10-21 6 0 10 5 10 12 0 13-69 138-76 138-3 0 8-24 25-54z"/><path d="m478 1156c-8-10-8-22 4-47 10-25 14-28 15-13 0 11-6 26-12 33-11 10-9 15 6 27 11 8 15 14 9 14s-16-6-22-14z"/><path d="m527 1042c52-46 100-95 100-104 0-11-61 3-87 19-13 9-23 10-27 4-4-5 4-11 16-13 16-2 25-12 29-33 4-16 7-25 8-19 0 6 18 10 39 9 52-3 56 3 29 38-13 18-27 42-31 55-4 12-15 22-26 22-10 0-33 12-52 26-31 24-31 24 2-4z"/><path d="m767 990c0-5-8-10-17-10-17-1-17-1 0-11 23-14 20-70-5-77-10-2-18-8-18-13s8-5 17-2c12 5 15 2 10-10-3-9-2-19 3-22 6-4 9-27 9-53-1-26-4-37-6-24-2 12-9 22-14 22-10 0-1-48 12-66 5-6 6-14 3-17-4-3-3-14 1-24 10-23 12-29 14-49 1-10 7-13 20-9s21 1 23-9c3-13 5-13 23 0 19 15 19 16 2 29-12 8-14 15-7 20 5 3 8 11 5 16s1 6 9 3c12-5 16 0 16 17 1 22 1 22 11 6 8-14 8-22 0-30-6-6-11-18-11-26 0-12 2-13 13-2 6 6 12 17 12 23s8 12 18 14c18 2 23-11 7-21-5-3-10-11-10-18 0-6 11 0 25 15s25 35 25 45c1 17 1 17 10 1 8-12 20-16 50-13 31 3 38 1 33-10-3-8-13-15-22-15-13 0-13-2-2-9 8-5 12-18 8-30-3-12 0-21 6-21 9 0 9-2 0-8-6-4-9-19-6-35 4-22 8-25 19-16 8 6 14 18 14 25 0 8 5 14 10 14 6 0 15 11 20 25s14 25 20 25c5 0 10 12 10 28 0 43 14 57 28 27 16-35 15-55-4-76-10-11-12-19-5-24 6-3 11-1 11 5s5 8 10 5c6-4 7-12 4-18-5-9-3-9 6 0 11 10 11 15 0 28-7 8-8 15-2 15 5 0 13-8 17-17 6-17 7-17 16 0 12 21 35 22 43 2 3-9 0-15-8-15s-24-9-37-20c-22-19-23-21-7-33 10-8 15-17 11-20-3-4 4-7 17-7 20 0 22-4 17-34-3-19-3-37 0-40 12-12 33 18 33 48 0 62-24 188-37 193-7 3-13 11-13 18s-7 15-15 19c-8 3-15 15-15 26 0 18 3 19 21 9 17-9 20-8 13 3-5 7-10 22-11 32-4 26-13 34-13 13 0-10-4-17-9-17s-13-9-16-20c-8-24-21-26-29-4-3 8-2 12 3 9 14-8 23 12 16 35-6 18-27 30-23 13 1-5-2-20-5-35-4-16-9-39-12-52s-14-26-25-29c-22-6-27 12-8 31 9 9 9 12 0 12-15 0-16 27 0 32 14 5 20 38 7 38s-11 28 2 32c7 2 5 9-5 17-14 12-16 10-17-18-1-17-2-37-3-43 0-7-13-14-28-16-23-3-27 0-21 15 3 10 15 29 27 43 21 25 21 25 0 7-20-16-23-16-63 1-26 10-44 25-47 39-4 14-11 20-21 16-9-4-16 2-20 16-3 11-10 21-15 21-6 0-8 6-5 14s-1 20-9 27c-13 10-17 10-24-2-7-11-12-11-22-1-17 17-39 15-32-3 4-9 0-15-10-15s-13 6-10 15c4 8 1 15-5 15s-11-4-11-10zm40-110c8-5 11-10 5-10-5 0-17 5-25 10s-10 10-5 10c6 0 17-5 25-10zm70-40c0-10-27-7-37 5-4 4-2 5 5 1 6-4 12-2 12 4s5 8 10 5c6-3 10-10 10-15zm108 14c14-4 22-14 23-28 0-20 1-20 9-1s9 19 9-3c1-17-7-27-29-35-16-6-30-17-30-24s-4-13-10-13c-5 0-7 7-4 15 4 9 0 15-10 15-8 0-20 9-26 19-15 29-12 38 5 15 8-10 15-16 15-12s15 3 33-2c31-9 32-9 11 8-22 17-39 52-26 52 4 0 17-3 30-6zm-140-40c12-4 22-10 22-15s-11-4-25 1c-20 8-27 6-36-11-13-25-33-12-23 14 6 18 24 21 62 11zm218-48c3-8 0-24-6-36l-12-22-21 21c-21 21-21 21-2 36 25 18 34 19 41 1zm-141-26c-8-39-19-46-25-15-3 17-1 33 4 37 15 10 25 0 21-22zm91-17c16-26 16-27 0-14-15 13-19 13-27 0-6-10-9-7-9 14 0 15 4 27 9 27s17-12 27-27zm178-15c-7-11-34 3-34 18 0 12 4 12 19 2 11-7 18-15 15-20zm46-53c0-8-4-15-10-15-5 0-10 7-10 15s5 15 10 15c6 0 10-7 10-15z"/><path d="m414 952c-23-26-22-29 14-24 20 3 29 9 27 20-4 23-22 25-41 4z"/><path d="m680 931c0-11 5-18 9-15s5 11 1 19c-7 21-12 19-10-4z"/><path d="m1150 935c-3-9-3-18-1-21 3-3 8 4 11 16 6 23-1 27-10 5z"/><path d="m707 904c0-8 5-12 10-9 6 3 10 10 10 16 0 5-4 9-10 9-5 0-10-7-10-16z"/><path d="m624 844c-15-8-32-12-37-9-8 5 2-27 30-90 16-39 22-60 27-95 6-50 22-64 59-50 24 10 26 13 13 20-11 6-15 18-12 34 3 13 0 27-6 30-6 4-11 18-11 30 0 13-6 39-14 57-7 19-11 39-9 46s1 19-4 27c-7 12-12 12-36 0zm38-84c3-6-4-10-17-10-18 0-20 2-8 10 19 12 18 12 25 0zm38-147c-7-2-19-2-25 0-7 3-2 5 12 5s19-2 13-5z"/><path d="m392 840c-3-5-1-18 5-29 13-25 13-78 0-86-5-3-15-16-21-27-11-20-9-21 21-15l32 7-4-54c-1-30 0-52 5-49 10 6 9-11-2-40-8-20-15-24-36-19-21 3-27 0-32-17-3-11-11-21-18-21-15 0-22-45-17-117 4-50 5-51 39-58 39-7 58 4 67 40 5 20-1 32-26 56-24 22-27 27-10 19s22-8 23 2c0 7 4 4 9-7 8-18 9-17 9 6 1 15-6 29-14 33-8 3-15 11-14 18 0 10 2 10 6 1 8-20 33-15 33 6 0 11 5 23 10 26 7 4 6 13-1 27-6 11-9 35-7 54s1 35-3 36c-14 5-15 154-2 170 10 12 7 17-17 31-18 11-31 14-35 7zm-29-435c-7-37-26-48-26-15 0 21 21 62 28 55 3-2 1-20-2-40z"/><path d="m2532 800c10-11 20-20 23-20s-3 9-13 20-20 20-23 20 3-9 13-20z"/><path d="m2679 661c2-7 7-12 11-12 12 1 9 15-3 20-7 2-11-2-8-8z"/><path d="m38 613c1-23 3-29 6-16 3 14 9 20 19 16 8-3 14 1 14 10 0 12-19 27-36 27-2 0-3-17-3-37z"/><path d="m1111 605c4-38 17-44 14-7-1 18-5 32-9 32s-6-11-5-25z"/><path d="m708 575c-25-27-17-34 13-12 11 8 17 19 15 25s-14 1-28-13z"/><path d="m772 580c-3-5 1-10 9-10 9 0 16 5 16 10 0 6-4 10-9 10-6 0-13-4-16-10z"/><path d="m242 550c-4-17-5-34-2-36 2-3 7 10 11 27 3 18 4 34 2 36-2 3-7-10-11-27z"/><path d="m620 563c-14-3-23-12-23-23 0-12 7-18 23-17 12 1 33-3 46-7 21-7 22-6 10 7-8 8-16 15-19 15-27-1-32 3-20 17 7 8 11 14 9 14-2-1-14-4-26-6z"/><path d="m1096 561c8-5 9-11 3-15-6-3-13-2-17 4s-11 7-17 4c-7-5-2-11 12-16 16-6 26-5 31 4 9 14 2 28-14 28-8 0-8-3 2-9z"/><path d="m818 542c-7-14-6-18 8-18 12 0 17 6 13 18-2 10-6 18-8 18s-8-8-13-18z"/><path d="m30 502c-2-42-1-44 9-22 11 26 11 50 0 62-4 4-8-14-9-40z"/><path d="m727 540c20-13 33-13 25 0-3 6-14 10-23 10-15 0-15-2-2-10z"/><path d="m2634 543c-12-12-7-22 8-17 8 4 15 10 15 15 0 11-14 12-23 2z"/><path d="m1174 526c-4-10-1-13 9-9 15 6 19 23 5 23-5 0-11-7-14-14z"/><path d="m717 520c0-6 7-10 15-10s15 2 15 4-7 6-15 10c-8 3-15 1-15-4z"/><path d="m1594 504c-3-3-3-13 0-21 5-12 7-12 14-1 15 23 4 40-14 22z"/><path d="m1297 490c0-5 7-7 15-4 8 4 15 8 15 10s-7 4-15 4-15-4-15-10z"/><path d="m229 470c0-14 2-19 5-12 2 6 2 18 0 25-3 6-5 1-5-13z"/><path d="m720 478c2-7-5-21-16-30-11-10-15-18-10-18 13 0 36 27 39 46 1 8-2 14-8 14-5 0-8-6-5-12z"/><path d="m1296 443-1-28-7 25c-4 15-10 20-14 13-9-14 4-47 21-50 8-2 12 9 12 32 0 41-10 48-11 8z"/><path d="m137 426c-16-16-12-36 8-37 9 0 32-1 50-2 28-2 32 1 32 23s-4 25-40 25c-22 1-45-4-50-9z"/><path d="m692 400c-3-5 1-10 9-10s18 5 21 10c3 6-1 10-9 10s-18-4-21-10z"/><path d="m497 390c0-5 5-10 10-10 6 0 10 5 10 10 0 6-4 10-10 10-5 0-10-4-10-10z"/><path d="m19 370c0-14 2-19 5-12 2 6 2 18 0 25-3 6-5 1-5-13z"/><path d="m1257 369c0-11 4-18 10-14 5 3 7 12 3 20-7 21-13 19-13-6z"/><path d="m1282 380c3-5 14-10 23-10 15 0 15 2 2 10-20 13-33 13-25 0z"/><path d="m1336 383c-1-5-1-11 0-15 0-5-6-8-14-8s-15-4-15-9c0-15 18-23 25-11 8 13 15 50 9 50-2 0-5-3-5-7z"/><path d="m650 370c-13-5-23-11-23-14 0-7 40 6 46 15 6 10 6 10-23-1z"/><path d="m1669 346c-17-37-15-45 4-18 8 12 14 27 12 33s-9-1-16-15z"/><path d="m1768 348c-7-15-11-32-9-39 6-19 30 26 26 48-2 12-6 10-17-9z"/><path d="m4 318c-8-31 0-78 14-78 5 0 9 4 9 9s12 12 28 17c19 5 22 8 10 11-9 2-19 16-23 31-5 19-9 22-15 13-6-11-9-10-12 5s-5 13-11-8z"/><path d="m803 325c4-8 10-15 15-15 4 0 6 7 3 15-4 8-10 15-15 15-4 0-6-7-3-15z"/><path d="m1320 255c-18-8-33-17-33-20s9-1 21 5c16 9 24 8 39-5 16-15 17-14 13 10-3 14-6 25-7 25 0-1-16-7-33-15z"/><path d="m2398 253c-1-12 4-25 9-28 12-7 12 2 0 30-8 19-9 19-9-2z"/><path d="m1236 239c-15-9-15-9 19-13 12-2 22 1 22 5 0 12-26 18-41 8z"/><path d="m1387 220c-13-8-12-10 3-10 10 0 17-8 17-19 0-10 8-22 17-25 12-5 14-9 5-18-7-7-12-17-12-22 0-6 6-4 13 5s22 19 35 23c12 4 22 12 22 18s-6 6-15-2c-22-18-42-6-50 29-7 33-12 36-35 21z"/><path d="m1919 210c0-14 2-19 5-12 2 6 2 18 0 25-3 6-5 1-5-13z"/><path d="m237 212c0-12 19-26 26-19 2 2-2 10-11 17-9 8-15 8-15 2z"/><path d="m967 205c0-8 9-15 19-15 22 0 36 16 22 24-5 4-12 0-14-6-4-10-6-10-6 0-1 17-21 15-21-3z"/><path d="m1160 213c9-2 23-2 30 0 6 3-1 5-18 5-16 0-22-2-12-5z"/><path d="m1552 210c-8-13-1-24 14-19 6 3 7 10 2 18-6 10-10 10-16 1z"/><path d="m1702 129c-5-14-1-27 9-37 15-15 16-15 16 0 0 9-4 19-10 23-5 3-7 12-3 20 3 8 3 15 0 15s-9-10-12-21z"/><path d="m1767 110c6-11 12-20 14-20s2 9-1 20-9 20-15 20c-5 0-4-9 2-20z"/><path d="m769 51c-8-4-12-19-10-32 3-24 3-23 26 9 23 31 15 43-16 23z"/><path d="m560 37c-4-8-17-19-28-25-25-14-5-15 29-2 14 5 26 16 26 25 0 19-16 20-27 2z"/></g><g fill="#a1a459" transform="translate(246 36)"><path d="m2118 3194c-28-21-67-57-86-79-19-23-39-41-44-41-11-1-115-141-138-187-28-56-17-49 22 15 57 95 108 150 184 198 68 44 93 49 81 17-4-11-3-14 5-9 9 5 12-6 12-37 0-49 7-62 26-46 10 8 18 7 29-5 9-9 23-16 31-16s17-13 21-30c3-16 10-30 15-30 17 0 58-53 58-76 0-13 6-24 13-24 15 0 10-112-5-121-6-4-12-33-13-65-1-33-3-59-4-59-8 0-14-186-6-193 2-3 16 21 30 52 25 55 37 66 50 46 4-6 10-8 15-5 12 7 19-51 15-137-1-43-1-78 0-78 3 0 13 38 40 155 8 36 22 66 34 76s21 23 21 31c0 19 20 38 40 38 12 0 15-12 15-62 0-58 2-63 22-63 12 0 25-4 29-8s-2-7-14-7-22-6-22-14-4-16-10-18c-5-1-11-16-13-33-2-16-9-40-15-52-10-17-9-25 3-37 8-8 15-21 15-30 0-8 4-18 10-21 5-3 7-18 5-33-3-15-7-62-9-104-2-43-9-84-15-91-6-8-9-16-6-18 4-5-41-310-49-334-2-5-9 3-15 18-10 25-13 27-26 13-8-8-15-22-15-31 0-8-7-18-15-21-10-4-13-14-9-29 9-35-41-112-95-146-25-16-40-29-33-29s12-7 12-16c0-8 5-12 10-9 6 3 10 1 10-4 0-6-4-11-9-11-10 0-26-62-41-164-7-41-19-79-31-95-18-22-18-26-5-29 8-2 23 1 33 6 13 7 28 6 50-3 25-11 33-22 39-49 3-20 10-39 15-42s9-4 9-2c2 18 39 108 39 96 1-22 17-23 25-2 10 25 7 74-4 74-5 0-17 17-27 38l-16 37-6-35c-6-37-10-35-39 19-9 18-9 27-1 37 9 11 8 14-2 14-11 0-11 2 1 10 10 6 15 31 17 89l2 81 66 63c52 50 68 61 77 50 19-24 25-14 38 65 7 42 18 93 25 112s18 54 24 77c8 30 23 51 48 70 20 16 50 41 67 58 17 16 34 28 38 27 5-1 16 17 27 41 31 71 42 93 36 72-3-10-9-39-12-62-5-35-3-42 8-38 15 6 39 50 39 72 0 7 5 13 10 13 6 0 10 9 10 19 0 11 4 23 10 26s7-1 4-9c-3-9-4-16 0-16 3 0 10 19 16 43 6 23 14 51 19 62 17 43 43 121 46 140 1 11 14 45 28 75l26 55-6-66c-3-43-1-69 6-73 6-4 11 0 11 8s7 19 15 23c8 5 16 20 19 33 2 14 5 25 6 25 3 0 11 43 27 155 9 63 20 117 25 118 4 2 8 8 8 13 0 6-4 8-10 4-5-3-14 13-21 35-16 53-60 102-79 90-22-14-28-12-35 10-7 23-28 26-44 6-7-8-25-67-42-133-31-126-70-243-80-243-11 0 11 111 29 149 41 84 12 194-34 134-12-17-13-16-15 7-1 14-2 30-4 35-1 6-3 16-3 23-1 8-8 12-14 9-14-5-68 23-68 34 0 19-78-13-103-43-23-27-29-30-37-18-5 8-10 25-10 37s-6 28-13 35-24 35-38 62c-14 26-28 47-32 47-18-3-69 32-79 54-6 14-15 25-20 25s-25 11-46 24c-20 13-61 31-89 41-32 10-53 22-53 31 0 8-7 17-16 21-8 3-13 12-10 19 8 22-5 16-60-26zm249-2024c26-6 38-38 19-50-18-11-80 7-85 24-6 24 12 53 26 42 7-5 24-12 40-16z"/><path d="m1424 3079c-25-9-39-10-52-2-14 9-22 6-43-13-14-13-25-29-25-36 0-23-19-25-47-5-23 18-34 19-63 11-19-5-47-21-63-35-20-19-29-23-32-13-7 18-69 22-96 8-11-6-44-12-73-13-40-2-64-10-100-33-56-37-135-128-173-201-31-58-38-63-48-33-3 11-17 23-31 26-13 3-28 14-34 23-8 14-12 14-30 3-19-11-24-11-34 4-8 10-20 15-30 11-12-5-16-1-16 16 0 28-17 47-42 47-13 0-18 8-18 25 0 31-16 32-41 3-18-21-20-22-30-5-8 13-14 15-29 7-27-14-32-13-26 8 5 16 1 18-33 16-22-1-45-5-52-9-9-6-11-2-7 13 5 16 2 22-10 22-13 0-12 3 4 15 27 21 10 18-36-5-22-11-56-37-77-58l-37-37 33-5c30-4 32-7 18-18-9-7-19-27-22-43-4-16-11-31-16-34-5-4-9-11-9-17s11 0 25 14c13 13 40 33 59 43 29 16 37 17 50 6 22-18 20-46-3-68-14-13-17-23-11-33 7-12 14-10 38 13 35 33 42 34 42 2s7-31 43 3l30 27-7-62c-4-38-3-63 2-63 6 0 12 7 16 15 9 26 25 17 31-19 4-20 2-43-6-57-14-26-69-179-69-192 0-18 21 6 41 46 29 58 102 167 112 167 4 0 5-11 1-24-6-24 16-51 24-28 2 7 8 10 13 6 5-3 9 0 9 5 0 19 2 26 12 45 18 33 28-4 12-43-19-45-54-184-49-190 7-7 9-4 60 104 56 117 63 113 64-35 1-122-12-167-93-325-36-71-69-147-73-168-3-24-18-50-39-71-19-19-34-44-34-58l-1-23-13 23c-10 18-15 20-22 10-25-33-35-90-28-157l6-69 34 20c39 23 56 16 53-20-6-51 22-122 52-137 26-14 28-14 24 6-3 12-7 24-11 28-4 3-4-2-1-12 4-10 3-16-2-13s-11 15-14 26-1 18 4 15c5-4 6 8 3 25-7 34 8 40 43 15 20-14 23-14 34 6 9 17 8 23-2 30-11 7-10 9 4 9 21 0 22 26 2 46-11 11-19 12-32 5-10-6-12-11-5-11 17 0 15-20-3-20-8 0-15 5-15 10 0 6-9 10-21 10-15 0-19 5-15 15 3 8 1 27-4 41-14 35 14 150 44 188l24 28 20-20c11-11 22-31 24-44 2-17 9-23 28-23 24 0 25-3 30-70 5-65 7-70 35-85 17-8 33-19 37-25s8-2 8 8c0 9 5 17 10 17 6 0 10 6 10 14s4 17 9 21c6 3 8-4 5-17s-8-66-11-118c-2-52-9-111-14-130-17-65-6-116 16-80 8 12 45 13 45 1 0-5 10-11 23-15 15-3 37-30 65-79 23-40 42-78 42-85 0-21-36-13-58 13-12 14-28 25-36 25-21 0-30-20-17-33 6-6 11-21 11-33 0-25 52-74 80-74 11 0 22-11 28-27s21-39 32-53c12-14 19-19 15-12-3 6-1 12 4 12 6 0 11-7 11-16 0-8 4-13 10-9 5 3 7 13 4 23-3 9 1 6 9-7 10-17 16-20 22-11 6 10 10 9 17-4 8-14 13-15 24-5 19 16 18 46-3 58-17 10-17 10 0 11 9 0 17 5 17 10 0 6 5 10 11 10s9-7 5-15c-3-9 0-15 10-15s14 6 10 15c-7 18 15 20 32 3 10-10 15-10 22 1 7 12 11 12 24 2 8-7 12-19 9-27s0-14 6-14 11-6 11-14c0-28 22-28 77-1 2 1-26 89-61 196-66 203-129 349-151 349-9 0-11-8-8-22 5-20 1-18-26 12-17 19-34 45-37 57-4 13-10 23-15 23s-9 6-9 14c0 7-7 20-17 27-15 13-16 11-10-23 5-34 3-38-15-38-20 0-21 3-15 96l7 96-61 82c-65 86-147 245-179 346-26 82-36 255-21 345 16 88 54 199 87 248 40 61 97 117 119 117 11 1 31 7 45 15s35 14 47 15c18 0 22-6 25-37 3-38 4-38 16-13 8 14 24 33 38 43 19 14 28 16 46 6 18-9 24-8 34 6 11 14 13 9 19-39 8-62 25-86 25-36 0 24 11 42 44 76 57 56 82 58 89 5 5-40 32-81 54-81 7 0 15 12 18 28 19 93 39 152 49 149 6-2 12-14 14-28 6-47 12-56 24-35 10 18 11 18 29-5l18-24-1 33c-1 35 23 69 40 58 34-21 54-105 72-306 6-69 17-174 25-235 8-60 17-145 19-187 3-43 8-82 11-88 4-6 2-16-3-23-12-15-21-109-27-270-6-156-13-224-25-267-6-19-11-66-11-105l-2-70-8 60c-5 33-13 96-18 140-8 67-9 50-6-100 4-163 3-176-9-135l-14 45-2-60-2-60-14 40-14 40 5-57c3-36 1-58-5-58-10 0-9-117 4-265 5-51 4-65-4-50-9 18-10 17-5-5 3-14 11-50 16-80 6-30 15-71 19-90 19-74 21-92 11-86-5 4-13 27-17 51-3 25-10 42-15 39-10-6-7-33 5-52 7-11 4-12-13-3-18 10-21 9-21-9 0-11 7-23 15-26 8-4 15-12 15-19s6-15 13-18c12-5 22-54 43-225 7-52 11-51 17 3s15 73 38 80c12 4 19 16 19 31 0 13 5 24 10 24 6 0 10 16 10 36 0 21 4 33 10 29 20-13 41 23 36 62-13 103-22 118-85 130l-36 6 30 8c16 5 40 6 54 2l24-6-7 69c-17 174-19 234-7 234 10 0 15-19 12-47-1-6 3-14 9-18s7 1 3 12c-4 12-3 15 5 8 5-5 12-19 15-30s5 5 6 35c1 49 3 53 15 37 8-10 17-39 20-65 4-26 10-63 14-82l6-35 6 40 6 40 13-62c8-35 17-61 21-58 13 8 40-106 52-217l11-107 27 14c15 8 33 28 40 45 14 34 10 53-36 172-18 47-18 48 1 63 15 11 16 15 5 15-8 0-26 9-38 20-34 28-45 131-39 385 4 225 16 287 53 293 10 2 52 33 93 71l74 67-25 49c-13 28-46 89-71 137-100 185-146 354-147 536 0 63-3 82-14 82-8 0-17 7-20 16-5 14-4 15 9 4 22-18 31-4 38 55 3 28 3 44 0 37-6-16-33 31-33 58 0 28-11 50-25 50s-25-29-29-80c-6-65-5-63-20-51-8 7-20 41-27 76-7 36-16 65-21 65-4 0-8 9-8 20s-7 23-15 26c-8 4-15 18-15 33l-1 26-13-30c-12-29-13-28-35 60-34 136-45 147-121 120zm-864-939c-8-34-122-227-154-262-15-16-24-25-19-20 4 6 7 16 7 23 0 34 87 219 117 250 40 39 58 43 49 9zm-28-254c6-18-15-14-22 4-4 10-1 14 6 12 6-2 14-10 16-16zm-41-24c-3-7-5-2-5 12s2 19 5 13c2-7 2-19 0-25zm283-163c6-7 13-22 15-32s4-20 5-23c6-13-3-48-18-78-13-26-22-32-42-30-21 3-25 9-28 44-3 41 29 134 46 134 5 0 15-7 22-15zm-72-263c2-23-1-42-6-42-18 0-32 27-28 51 3 13 5 28 5 32 1 5 7 7 14 5 6-3 13-23 15-46zm72-82c0-5-7-10-15-10s-15 5-15 10c0 6 7 10 15 10s15-4 15-10zm1091-621c10-6 10-9 2-9-7 0-14-12-14-27-2-44-18 43-17 92l1 40 7-43c3-24 13-48 21-53z"/><path d="m3363 3007c44-90 63-174 63-281 0-120-2-131-19-125-9 3-13-3-13-20 0-20 4-24 20-20s19 2 14-11c-4-10-12-15-20-12-9 3-16-12-24-52-7-31-23-80-36-109-13-28-24-57-24-62 0-6-4-11-9-11s-24-25-41-56c-18-30-34-53-37-50-2 2 1 14 7 26 23 44 2 28-35-25-20-30-41-55-45-55s-13-13-20-30c-12-29-30-41-30-20 0 6-25-10-55-35-31-25-59-45-63-45s-20-25-36-56c-18-34-32-51-36-44-5 9-9 9-14 1-4-6-2-11 3-11 6 0 11-4 11-10 0-5-7-10-15-10s-15-7-15-15c0-7-6-18-12-22-15-9-51-82-68-135-6-21-15-38-19-38s-8-6-8-12c0-7-4-31-7-53-5-30-1-23 18 28 25 70 39 93 69 115 9 7 17 18 17 24 0 39 99 188 124 188 4 0 0-7-8-16-9-8-16-21-16-28s-9-21-20-31c-31-28-62-85-46-85 8 0 41 43 75 96 33 52 65 93 70 90 4-3 30 22 56 55s50 58 52 55c7-7-22-53-55-88-14-16-21-28-15-28 11 0 83 91 83 104 0 7 67 97 83 111 19 16 57 73 57 85 0 5 4 10 8 10 5 0 18 26 31 58 12 31 33 80 46 109 48 103 56 282 19 422-14 54-76 181-89 181-2 0 9-26 24-57z"/><path d="m1820 2819c-9-26-7-32 5-12 6 10 9 21 6 23-2 3-7-2-11-11z"/><path d="m2201 2828c-12-12-8-74 4-71 12 2 17-6 44-68 13-30 19-79 23-200 4-112 8-151 14-130 13 46 11 250-2 275-19 35-53 143-54 169-1 24-16 37-29 25z"/><path d="m3394 2640c0-9 5-16 10-16 6 0 10 4 10 9 0 6-4 13-10 16-5 3-10-1-10-9z"/><path d="m1024 2554c0-5 5-10 10-10 6 0 10 5 10 10 0 6-4 10-10 10-5 0-10-4-10-10z"/><path d="m3017 2327c-18-7-16-30 2-30 8 0 15 9 15 19s-1 18-2 17c-2 0-9-3-15-6z"/><path d="m2255 2172c0-28 2-30 9-13 12 28 12 45 0 45-5 0-10-15-9-32z"/><path d="m305 2067c-36-53-57-114-48-137 8-21 36-20 43 2 3 9 15 35 27 57 21 40 33 125 17 125-4 0-22-21-39-47z"/><path d="m1870 1599c-11-8-15-15-10-15 6 0 19 7 30 15 10 8 15 14 9 14-5 0-19-6-29-14z"/><path d="m2739 1563c-11-75-37-159-48-159-7 0-6-5 2-12 19-19 36 10 51 85 6 34 15 67 19 72 4 6 2 21-5 34-11 22-12 21-19-20z"/><path d="m1466 1519c0-16 2-22 5-12 2 9 2 23 0 30-3 6-5-1-5-18z"/><path d="m1236 1465c-10-6-9-11 3-21 11-9 19-10 26-3 13 13-12 35-29 24z"/><path d="m1338 1437c6-25 3-31-19-41-14-7-33-12-42-12-10 0-13-6-9-16 3-9 6-20 6-25s6-9 13-9c8 0 13-19 15-55 1-30 7-67 13-82 6-16 13-44 16-63 2-19 8-46 12-61 9-28-19-116-41-131-10-6-10-8-1-8 24 0 63 43 63 69 0 33 19 66 21 36v-20l9 20c5 11 9 33 9 48 1 16 5 26 9 23 17-10-28 240-45 253-4 3-8 26-8 50 0 28-5 46-14 49-10 3-12-3-7-25zm6-83c0-5-4-10-10-10-5 0-10 5-10 10 0 6 5 10 10 10 6 0 10-4 10-10z"/><path d="m318 1170c-3-8-4-25-1-38 3-17 5-15 6 10 1 29 4 33 22 27 15-5 19-4 15 4-10 16-36 14-42-3z"/><path d="m370 1122c-2-7-10-50-18-95-15-84-11-104 10-58 14 30 28 165 18 165-4 0-8-6-10-12z"/><path d="m1426 1054c0-14 2-19 5-12 2 6 2 18 0 25-3 6-5 1-5-13z"/><path d="m2654 1007c0-21 3-24 9-14 5 8 7 20 4 28-8 21-13 15-13-14z"/><path d="m1014 904c8-5 20-10 25-10 6 0 3 5-5 10s-19 10-25 10c-5 0-3-5 5-10z"/><path d="m964 894c0-5 5-10 10-10 6 0 10 5 10 10 0 6-4 10-10 10-5 0-10-4-10-10z"/><path d="m1293 877c-8-9-13-24-11-34s-5-20-15-22c-10-3-5-5 12-4 26 2 30 6 33 40 4 41 1 45-19 20z"/><path d="m1181 864c6-22 36-43 47-33 14 14 5 41-16 47-34 9-37 8-31-14z"/><path d="m974 865c0-5 5-13 10-16 6-3 10-2 10 4 0 5-4 13-10 16-5 3-10 2-10-4z"/><path d="m1047 837c9-14 47-24 47-12 0 5-4 9-9 9s-17 3-27 7c-11 4-15 3-11-4z"/><path d="m2769 824c10-11 20-20 23-20s-3 9-13 20-20 20-23 20 3-9 13-20z"/><path d="m1249 789c-19-15-19-15 2-36l21-21 12 22c12 22 8 50-7 50-4 0-17-7-28-15z"/><path d="m1205 752c1-37 12-53 40-56 17-2 29 3 32 12 4 10 1 16-8 16-8 0-22 11-31 25-20 31-34 32-33 3zm40-24c12-14 11-16-5-13-11 2-21 10-24 17-5 17 13 15 29-4z"/><path d="m1360 729c-3-9-6-24-5-33 0-9 5-4 10 12 9 32 6 48-5 21z"/><path d="m664 669c0-8 4-15 10-15 5 0 7 7 4 15-4 8-8 15-10 15s-4-7-4-15z"/><path d="m119 654c-3-5 1-10 9-10s18 5 21 10c3 6-1 10-9 10s-18-4-21-10z"/><path d="m126 574c-7-11-8-20-3-20 9 0 24 30 18 36-1 2-8-6-15-16z"/><path d="m1464 523c0-13 5-31 10-39 7-11 8-5 4 20-8 43-14 51-14 19z"/><path d="m74 499c0-8 2-15 4-15s6 7 10 15c3 8 1 15-4 15-6 0-10-7-10-15z"/><path d="m412 407c6-2 18-2 25 0 6 3 1 5-13 5s-19-2-12-5z"/><path d="m1629 384c-3-5 3-10 15-10s18 5 15 10c-3 6-10 10-15 10s-12-4-15-10z"/><path d="m2556 364c0-14 2-19 5-12 2 6 2 18 0 25-3 6-5 1-5-13z"/><path d="m646 354c-10-16-10-20 1-20 7 0 13 9 14 20s1 20 0 20-8-9-15-20z"/><path d="m221 294c8-38 21-46 40-27 11 11 13 17 5 17-7 0-12-4-12-10 0-20-16-9-28 18-10 25-11 25-5 2z"/><path d="m1188 242c-5-7-3-8 6-3 7 4 16 2 21-6 7-11 9-10 9 4 0 19-25 23-36 5z"/><path d="m1619 177c-15-12-16-14-3-10 12 4 15 2 12-8-3-8-11-12-18-9s-13-1-13-8c0-22 46-13 70 12l22 24-24-19c-19-16-23-17-19-4 10 27-5 39-27 22z"/><path d="m1834 109c-17-10-20-14-9-15 9 0 22 7 29 15 15 18 12 18-20 0z"/><path d="m765 25c-7-5-12-14-9-21 2-7 10-4 22 9 19 21 12 28-13 12z"/></g><g fill="#7ba987" transform="translate(332)"><path d="m2156 1683c-27-7-52-52-38-69 7-7 17-11 24-8 6 3-6-11-27-31-21-19-42-33-47-30-6 3-7-1-4-9 4-11 0-16-10-16-9 0-16 5-16 10 0 18-20 11-21-7-1-10-5-4-10 12-6 23-7 18-4-20 3-27 9-51 13-53 4-1 6-31 4-67-4-52-1-66 12-71 16-6 65 40 66 63 0 21 44 59 95 82 28 13 64 33 80 46 38 29 86 116 67 122-6 3-10 9-6 14 3 5 1 9-5 9-5 0-8-13-6-30 2-18-4-38-15-53-11-14-17-27-14-29 3-3-14-15-37-26-55-27-73-16-64 40 4 21 3 38-2 37-4-1-23 4-40 12l-33 13 32 33c18 18 30 32 27 32-2-1-12-3-21-6z"/><path d="m299 1548c1-17 2-19 6-5 6 24 15 22 51-16 25-26 29-36 20-45s-9-12 0-12c30 0 24 34-11 67-43 39-68 43-66 11z"/><path d="m253 1373c-18-28-18-28 2-10 13 11 27 15 39 11 20-8 19-6-7 14-14 10-19 8-34-15z"/><path d="m628 1290c0-5 4-10 9-10 6 0 13 5 16 10 3 6-1 10-9 10-9 0-16-4-16-10z"/><path d="m250 1267c10-23 9-30-3-38-11-7-11-9 4-9 21 0 22 29 2 56-14 18-14 17-3-9z"/><path d="m2225 1223c-12-12-7-21 15-26 17-5 19-9 9-20-9-12-7-16 14-21 32-8 45-1 45 24 0 13-9 22-27 26-16 4-33 11-39 15-6 5-14 6-17 2z"/><path d="m2830 1172c-11-25-11-25 4-10 9 9 15 21 13 27s-10-2-17-17z"/><path d="m2713 1147c-4-10-5-21-1-24 10-10 18 4 13 24-4 17-4 17-12 0z"/><path d="m2823 1080c-3-5-3-10 0-10s-3-9-13-20c-13-14-17-30-14-55 6-47 14-45 10 2-2 31 1 39 20 49 15 7 20 14 13 19-6 3-9 11-6 16 4 5 4 9 1 9s-8-4-11-10z"/><path d="m2870 1071c2-21-5-33-24-41-13-5-16-9-8-9 19 0 44 19 52 40 4 9 1 16-7 16s-14-3-13-6z"/><path d="m592 979c-3-6-2-15 3-20s9-1 9 11c0 23-2 24-12 9z"/><path d="m2832 932c3-5 1-12-5-14-7-2-10-9-8-16 3-8 9-5 16 7 9 15 10 22 1 27-6 4-8 3-4-4z"/><path d="m938 865c-11-13-10-14 4-9 9 3 16 10 16 15 0 13-6 11-20-6z"/><path d="m2762 860c0-13 4-16 10-10 7 7 7 13 0 20-6 6-10 3-10-10z"/><path d="m2803 870c-4-6-3-10 2-9 20 4 32-2 36-18 4-17 5-17 6-1 1 21-35 43-44 28z"/><path d="m2911 833c0-37 0-38 9-10 6 18 7 32 1 38-5 5-9-6-10-28z"/><path d="m2894 775c-3-8-1-15 3-15 5 0 11 7 15 15 3 8 1 15-3 15-5 0-11-7-15-15z"/><path d="m129 711-23-18h31c17 0 31 4 31 9 0 4-5 8-11 8-5 0-7 5-4 10 9 14 3 12-24-9z"/><path d="m2523 719c-4-6-4-13-1-16 3-4 6-1 6 6s5 9 12 5 8-3 4 4c-9 15-13 15-21 1z"/><path d="m39 706c-10-12-8-13 8-9 12 3 18 9 15 14-7 12-10 11-23-5z"/><path d="m873 680c4-6 11-8 16-5 5 4 9 1 9-5s5-8 11-4c8 4 7 9-2 15-19 12-42 11-34-1z"/><path d="m14 649c-18-30-18-30 3-17 12 7 21 21 21 30 0 24-3 23-24-13z"/><path d="m798 610c6-11 13-20 16-20 2 0 0 9-6 20s-13 20-16 20c-2 0 0-9 6-20z"/><path d="m2661 605c0-7 10-10 24-7 13 2 23 6 23 7s-10 5-23 7c-14 3-24 0-24-7z"/><path d="m1331 586c-9-11-8-15 7-19 14-3 18 0 17 14-1 22-8 23-24 5z"/><path d="m2699 567c-13-21-12-21 5-5 10 10 16 20 13 22-3 3-11-5-18-17z"/><path d="m927 553c-1-5-1-12 0-17s-4-13-11-17c-10-7-9-9 5-9 12 0 17 8 17 25 0 23-8 36-11 18z"/><path d="m958 525c-8-9-8-15-2-15 12 0 26 19 19 26-2 2-10-2-17-11z"/><path d="m801 501c0-11 5-18 9-15s5 11 1 19c-7 21-12 19-10-4z"/><path d="m885 500c-3-11-1-20 4-20s9 9 9 20-2 20-4 20-6-9-9-20z"/><path d="m1779 511c-7-5-11-15-9-22 3-10 8-7 17 9 13 24 12 26-8 13z"/><path d="m2522 485c-10-8-14-15-8-15s17 7 24 15c16 19 9 19-16 0z"/><path d="m618 486c0-2 6-9 14-15 10-9 15-8 20 4 4 10-1 15-14 15-11 0-20-2-20-4z"/><path d="m2259 478c-1-9-8-21-17-26-14-8-14-13-5-28 7-10 10-12 8-4s2 23 10 32 13 23 10 30c-4 9-6 7-6-4z"/><path d="m568 461c0-8 52-22 58-16 2 1-11 7-27 13-17 6-31 7-31 3z"/><path d="m2475 436c-4-10-1-13 8-9 8 3 12 9 9 14-7 12-11 11-17-5z"/><path d="m644 427c8-23 38-39 58-31 21 8 21 34 0 34-8 0-12-4-9-10 10-16-17-11-37 7-18 16-18 16-12 0z"/><path d="m963 431c-3-5-1-12 4-15s11 1 15 9c6 16-9 21-19 6z"/><path d="m225 400c3-11 9-20 15-20 5 0 4 9-2 20s-12 20-14 20-2-9 1-20z"/><path d="m2168 400c-6-11-8-20-6-20 3 0 10 9 16 20s8 20 6 20c-3 0-10-9-16-20z"/><path d="m723 390c-4-6 3-10 14-10 25 0 27 6 6 13-8 4-17 2-20-3z"/><path d="m768 395c0-7 30-13 34-7 3 4-4 9-15 9-10 1-19 0-19-2z"/><path d="m2205 394c-3-3-3-13 0-22 4-10 2-13-5-8-7 4-12 2-12-3 0-18 19-12 30 8 9 19 0 37-13 25z"/><path d="m467 361c12-22 31-28 31-10 0 7 13 10 34 7 19-2 32 0 29 5s-22 7-42 6c-20-2-43 1-50 5-10 7-11 4-2-13z"/><path d="m1952 365c-3-8-4-20-2-27 3-7 7-1 10 15 6 29 1 36-8 12z"/><path d="m393 348c25-19 26-22 10-28-24-8-27-36-7-52 15-11 15-11 5 2-15 19-1 45 20 37 18-7 17 9-3 41-8 12-23 22-34 22-16 0-14-4 9-22z"/><path d="m1908 345c-7-8-9-15-6-15 4 0 2-8-3-18-8-14-6-19 5-19 8 0 13 5 11 11s0 21 4 34c10 26 6 28-11 7z"/><path d="m2439 336c-7-8-8-17-3-20 6-3 12 3 15 14 6 24 4 25-12 6z"/><path d="m453 329c-5-8-4-10 3-5 8 5 12-1 13-16 1-18 2-19 6-4 6 23-12 43-22 25z"/><path d="m816 328c5-5 16-8 23-6 8 3 3 7-10 11-17 4-21 3-13-5z"/><path d="m2132 327c-3-9 1-24 11-33 15-15 15-14 9 12-9 37-12 41-20 21z"/><path d="m2191 321c-9-14-8-18 3-18 15 0 27 24 16 31-5 3-13-3-19-13z"/><path d="m2336 323c6-2 18-2 25 0 6 3 1 5-13 5s-19-2-12-5z"/><path d="m178 305c-7-9-19-14-27-11s-11 1-8-4c9-15 26-12 40 7 13 17 14 17 32 0 27-23 37-22 16 3-21 24-36 25-53 5z"/><path d="m1019 294c13-16 29-19 29-5 0 5-9 11-21 14-16 4-18 3-8-9z"/><path d="m897 283c-12-16-12-17 1-7 8 6 22 14 30 17 13 5 12 6-1 6-9 1-23-7-30-16z"/><path d="m427 276c10-11 8-16-7-20-21-7-25-33-6-40 8-3 10 3 6 17-5 19-3 20 10 9 12-9 18-10 23-2s14 5 29-9l23-21-3 22c-1 13-3 26-3 31-1 4-6 7-12 7s-8-8-5-17c4-11-4-7-18 10-26 28-60 40-37 13z"/><path d="m1962 269c0-21 5-23 23-11 9 6 8 11-5 19-15 9-18 7-18-8z"/><path d="m349 258c1-18 2-19 6-5 2 9 9 14 15 11 7-4 8-2 4 4-12 20-26 13-25-10z"/><path d="m1286 258c3-11 8-15 11-10s13 11 21 14c10 3 6 6-11 10-22 4-25 2-21-14z"/><path d="m1892 269c-4-7-3-9 4-5 5 3 13 0 15-6 4-9 6-10 6-1 1 17-16 25-25 12z"/><path d="m1072 248-19-23 25 20c14 11 27 21 29 22 2 2 0 3-6 3-5 0-18-10-29-22z"/><path d="m1254 238c5-8 1-9-12-4-14 5-16 4-7-4 7-8 17-9 28-3 16 9 16 10 1 16-12 5-15 3-10-5z"/><path d="m1988 236c0-8 4-17 9-20 10-7 23 19 14 28-11 11-23 6-23-8z"/><path d="m368 225c0-8 4-15 8-15 5 0 9 7 9 15s-4 15-9 15c-4 0-8-7-8-15z"/><path d="m708 230c8-5 20-10 25-10 6 0 3 5-5 10s-19 10-25 10c-5 0-3-5 5-10z"/><path d="m1880 214c6-13 16-20 21-17 8 5 7 8-1 11-7 2-12 8-12 13 0 6 6 7 13 3 6-4 8-3 4 1-4 5-14 10-22 11-11 2-12-3-3-22z"/><path d="m1923 211c-3-5 0-13 6-17 7-4 9-3 5 4-3 5 0 13 6 15 9 4 10 6 1 6-6 1-14-3-18-8z"/><path d="m805 203c-3-5 5-8 18-8s21 3 18 8c-2 4-10 7-18 7s-16-3-18-7z"/><path d="m1412 188c-10-16 2-18 21-5 16 12 16 14 1 14-9 0-19-4-22-9z"/><path d="m728 175c14-17 40-20 40-5 0 5-7 7-15 4-8-4-15-1-15 5s-5 11-11 11c-8 0-8-5 1-15z"/><path d="m1673 181c-19-8-19-8 4-20 18-10 22-10 16-1-4 7-1 16 6 21 17 11 1 11-26 0z"/><path d="m1784 182c-8-13 8-27 34-30 14-1 30-9 36-17 19-25 84-16 84 12 0 8-5 11-11 8-6-4-17 1-25 11-11 15-13 15-8 3 7-23-25-33-46-14-9 8-27 15-39 15s-19 4-16 10 4 10 1 10-7-4-10-8z"/><path d="m1978 181c0-7-5-9-12-5s-10 4-6-1c4-4 3-14-3-22-7-8-8-13-1-13 5 0 13 8 16 17 5 13 9 14 15 5 6-10 11-9 22 5 7 10 9 15 5 11-5-4-15-3-23 3-10 9-13 8-13 0z"/><path d="m443 110c10-11 20-20 23-20s-3 9-13 20-20 20-23 20 3-9 13-20z"/><path d="m940 110c-18-29-15-38 4-12 9 13 14 25 12 27s-9-5-16-15z"/><path d="m773 102c2-3 0-13-6-23-8-15-6-19 6-19 9 0 13 5 10 11-4 6 1 16 10 23 15 11 14 12-4 12-11 0-18-2-16-4z"/><path d="m576 88c6-6 18-8 28-6 14 3 12 5-9 10-19 3-25 2-19-4z"/><path d="m718 70c-8-5-10-10-5-10 6 0 17 5 25 10s11 10 5 10c-5 0-17-5-25-10z"/><path d="m483 56c-17-12-17-13 3-11 26 2 37 11 24 19-5 3-17-1-27-8z"/><path d="m538 36c0-2 7-6 15-10 8-3 15-1 15 4 0 6-7 10-15 10s-15-2-15-4z"/><path d="m581 15c0-18 33-20 43-3 4 7 3 8-5 4-6-4-18-3-25 3-9 8-13 7-13-4z"/></g><g fill="#b3bfa0" transform="translate(7 1030)"><path d="m2439 2263c-27-7-121-77-173-129-23-23-50-44-60-47-13-3-12-5 6-6 17-1 35 12 59 40 43 50 131 116 166 125 14 3 29 10 32 15 5 9 1 10-30 2z"/><path d="m3111 2213c6-2 18-2 25 0 6 3 1 5-13 5s-19-2-12-5z"/><path d="m3281 2183c6-2 18-2 25 0 6 3 1 5-13 5s-19-2-12-5z"/><path d="m3421 2163c6-2 18-2 25 0 6 3 1 5-13 5s-19-2-12-5z"/><path d="m3488 2146c100-43 186-207 202-386 8-88-13-230-42-293-13-29-34-78-46-109-13-32-26-58-31-58-4 0-8-5-8-10 0-12-38-69-57-85-16-14-83-104-83-111 0-13-72-104-83-104-6 0 1 12 15 28 33 35 62 81 55 88-2 3-26-22-52-55s-52-58-56-55c-5 3-37-38-70-90-34-53-67-96-75-96-16 0 15 57 46 85 11 10 20 24 20 31s7 20 16 28c8 9 12 16 8 16-19 0-75-74-101-133-16-37-41-80-56-97-26-29-48-76-69-152-6-21-14-38-18-38s-13-30-20-66c-7-37-21-75-31-85s-21-31-24-46c-5-23-4-25 5-11 6 9 16 15 23 12 9-3 17 16 27 63 30 151 79 255 158 338 35 36 66 65 68 65s35 33 72 73c37 39 85 90 107 111 22 22 33 35 25 31-8-5-1 5 15 22 17 17 35 37 40 44 6 8 27 34 48 57 21 24 35 47 32 52-4 6-1 10 5 10s8 5 5 10c-3 6-1 10 5 10s8 5 5 10c-3 6-1 10 4 10 6 0 11 6 11 14s6 21 13 28c89 89 135 378 89 568-31 128-149 291-210 290-10-1-3-7 13-14z"/><path d="m2288 2102c-115-78-209-216-250-367-25-94-30-263-11-380 22-132 45-200 118-342 33-65 72-140 86-168l25-49-74-67c-41-38-83-69-93-71-31-5-47-71-51-203-2-66-1-101 2-77 2 24 13 59 24 78 10 19 19 40 19 47s14 26 30 42c19 18 26 31 19 36-6 4 17 24 55 49 36 24 66 45 66 47 0 3-12 2-27-2-21-5-24-4-16 7 7 7 25 21 42 31l31 18 17-38c8-21 20-76 24-122 8-76 19-121 19-78 0 9 5 17 10 17 6 0 10-4 10-10 0-5 7-10 16-10 10 0 14 5 10 16-3 8-2 12 4 9 5-3 26 11 47 30 21 20 33 34 27 31-7-3-17 1-24 8-15 19 11 61 42 69 18 5 16 1-10-26l-32-33 33-13c17-8 36-13 40-12 5 1 6-16 2-37-9-56 9-67 64-40 23 11 40 23 37 26-3 2 3 15 13 29 11 13 18 35 16 49-1 15 6 35 19 49 11 12 28 33 38 46l16 24 12-30c7-16 14-25 16-20 8 24 53 329 49 334-3 2 0 10 6 18 6 7 13 48 15 91 2 42 6 89 9 104 2 15 0 30-5 33-6 3-10 13-10 21 0 9-7 22-15 30-12 12-13 20-3 37 6 12 13 36 15 52 2 17 8 32 13 33 6 2 10 10 10 18s10 14 22 14 18 3 14 7-17 8-29 8c-20 0-22 5-22 63 0 50-3 62-15 62-20 0-40-19-40-38 0-8-9-21-21-31s-26-40-34-76c-27-117-37-155-40-155-1 0-1 35 0 78 4 86-3 144-15 137-5-3-11-1-15 5-13 20-25 9-50-46-14-31-28-55-30-52-8 7-2 193 6 193 1 0 3 26 4 59 1 32 7 61 13 65 15 9 20 121 5 121-7 0-13 11-13 24 0 23-41 76-58 76-5 0-12 14-15 30-4 17-13 30-21 30s-22 7-31 16c-11 12-19 13-29 5-19-16-26-3-26 46 0 29-4 42-11 38-6-4-9 0-7 10 5 31-15 25-87-23zm181-293c1-26 35-134 54-169 13-25 15-229 2-275-6-21-10 18-14 130-4 121-10 170-23 200-27 62-32 70-44 68-12-3-16 59-4 71 13 12 28-1 29-25zm-346-490c0-5-4-9-10-9-5 0-10 7-10 16 0 8 5 12 10 9 6-3 10-10 10-16zm26-109c13-47 30-105 38-130l16-45-5 43c-8 64 17 50 33-19 7-30 22-85 33-124 27-100 26-113-11-72-16 19-30 39-30 45 0 5-7 15-16 23-36 30-99 183-96 234 1 21-1 25-6 13-4-10-8 13-8 53-1 58 1 69 14 67 10-2 23-33 38-88zm363-12c0-7-4-22-9-33-7-17-9-15-9 13-1 17 4 32 9 32 6 0 10-6 9-12zm-207-198c17-39 32-198 16-182-12 12-48 188-47 232 1 31 2 32 8 10 4-14 14-41 23-60zm59-142c11-21 11-22-4-9-10 7-17 17-17 22 0 15 9 10 21-13zm-225-199c-26-29-44-54-41-57s11 0 17 6c7 7 17 12 22 12 6 0 5-5-1-11-14-14-63-20-63-8 0 8 100 108 108 109 2 0-17-23-42-51z"/><path d="m1560 1968c-9-35-19-75-22-90-3-16-11-28-18-28-22 0-49 41-54 81-7 53-32 51-89-5-33-34-44-52-44-76 0-50-17-26-25 36-6 48-8 53-19 39-10-14-16-15-34-6-18 10-27 8-46-6-14-10-30-29-38-43-12-25-13-25-16 13-3 31-7 37-25 37-12-1-33-7-47-15s-34-14-45-15c-22 0-79-56-119-117-33-49-71-160-87-248-15-90-5-263 21-345 32-101 114-260 179-346l61-82-7-96c-6-93-5-96 15-96 18 0 20 4 15 38-6 34-5 36 10 23 10-7 17-20 17-27 0-8 4-14 9-14s11-10 15-23c3-12 20-38 37-57 27-30 31-32 26-12-3 14-1 22 8 22 17 0 79-129 117-245 17-52 33-93 35-91s-16 67-41 143c-25 77-46 142-46 145 0 4 9 4 20 1s20-11 20-18 13-26 29-41c17-15 27-32 24-37-5-8 47-93 94-150 13-16 24-43 24-60 1-19 3-24 6-14 3 12 10 16 20 13 26-10 32 3 18 38-8 19-16 59-17 90-2 37-7 56-15 56-7 0-13 4-13 9s-3 16-6 25c-4 10-1 16 9 16 9 0 28 5 42 12 22 10 25 16 19 41-5 22-3 28 7 25 9-3 14-21 14-49 0-24 3-47 8-50 10-7 34-102 42-169 8-73 36-200 42-200 3 0 3 30-1 68-14 125-17 262-6 262 6 0 8 22 5 58l-5 57 14-40 14-40 2 60 2 60 14-45c12-41 13-28 9 135-3 150-2 167 6 100 5-44 13-107 18-140l8-60 2 70c0 39 5 86 11 105 12 43 19 111 25 267 6 161 15 255 27 270 5 7 7 17 3 23-3 6-8 45-11 88-2 42-11 127-19 187-8 61-19 166-25 235-18 201-38 285-72 306-17 11-41-23-40-58l1-33-18 24c-18 23-19 23-29 5-12-21-18-12-24 35s-25 32-41-31zm-277-408c0-5-4-10-10-10-5 0-10 5-10 10 0 6 5 10 10 10 6 0 10-4 10-10zm-330-446c38-66 164-198 245-259 82-60 109-91 46-51-22 14-44 26-49 26-4 0-32 20-61 45s-54 45-56 45-1-10 2-22c8-33 45-71 146-149 83-65 107-89 52-53-16 10-25 12-25 5s-9-5-25 5c-47 31-25 5 35-41 52-40 59-49 48-62-10-13-6-21 25-50 21-19 42-45 47-57 8-22 6-23-25-22-33 2-75 38-75 65 0 13-113 159-137 178-8 6-25 25-37 41-11 17-46 63-77 103-93 122-150 248-141 309l5 34 16-23c9-13 27-43 41-67zm757-601c-3-10-5-4-5 12 0 17 2 24 5 18 2-7 2-21 0-30zm-206-66c-7-7-15-6-26 3-12 10-13 15-3 21 17 11 42-11 29-24zm-116-7c3-5 2-10-4-10-5 0-13 5-16 10-3 6-2 10 4 10 5 0 13-4 16-10z"/><path d="m973 1036c0-2 7-6 15-10 8-3 15-1 15 4 0 6-7 10-15 10s-15-2-15-4z"/><path d="m1013 991c0-5 5-13 10-16 6-3 10-2 10 4 0 5-4 13-10 16-5 3-10 2-10-4z"/><path d="m1335 519c2-7 10-15 17-17 8-3 12 1 9 9-2 7-10 15-17 17-8 3-12-1-9-9z"/><path d="m363 1958c-94-31-96-32-186-124-68-70-94-104-103-136-7-24-27-74-44-113-26-60-30-82-30-150 1-88 36-213 76-269 12-17 29-49 37-71 9-22 20-39 25-38 15 3 53-36 59-60 3-12 42-53 87-92 135-116 150-140 147-229-1-26 4-41 15-48 9-5 20-27 23-49 6-38 7-39 26-22 21 19 23 18 53-39 17-30 20-136 6-185-5-17-7-59-4-92 5-53 7-58 21-45 13 14 13 19-2 50-21 44-20 50 5 90 20 32 21 33 44 18 22-14 24-14 35 6 15 29 4 57-29 75-30 15-58 86-52 137 3 36-14 43-53 20l-34-20-6 69c-7 67 3 124 28 157 7 10 12 8 22-10l13-23 1 23c0 14 15 39 34 58 21 21 36 47 39 71 4 21 37 97 73 168 81 158 94 203 93 325-1 148-8 152-64 35-51-108-53-111-60-104-5 6 30 145 49 190 18 43 5 75-15 38-7-13-12-25-11-26 6-9 0-23-7-19-5 4-11 1-13-6-8-23-30 4-24 28 4 13 3 24-1 24-10 0-83-109-112-167-20-40-41-64-41-46 0 13 55 166 69 192 8 14 10 37 6 57-6 36-22 45-31 19-4-8-10-15-16-15-5 0-6 25-2 63l7 62-30-27c-36-34-43-35-43-3s-7 31-42-2c-24-23-31-25-38-13-6 10-3 20 11 33 23 22 25 50 3 68-13 11-21 10-50-6-19-10-46-30-59-43-14-14-25-20-25-14s4 13 9 17c5 3 12 18 16 34 3 16 13 36 22 43 14 11 12 14-18 18l-33 5 38 39c41 41 126 86 163 86 12 0 25 5 28 10 9 15 0 13-105-22zm226-881c-1-23-12-60-23-82-12-22-24-48-27-57-7-22-35-23-43-2-3 8-1 32 5 53 13 41 69 131 82 131 5 0 8-19 6-43z"/><path d="m750 1137c-30-31-117-216-117-250 0-7-3-17-7-23-5-5 4 4 19 20 32 35 146 228 154 262 9 34-9 30-49-9z"/><path d="m962 673c-12-28-19-63-17-87 3-35 7-41 28-44 20-2 29 4 42 30 15 30 24 65 18 78-1 3-3 13-5 23-4 22-24 47-37 47-5 0-18-21-29-47z"/><path d="m633 513c1-56 35-88 66-62 13 10 11 17-18 46-36 37-48 41-48 16z"/><path d="m912 483c0-4-2-19-5-32-4-24 10-51 28-51 14 0 5 83-9 88-7 2-13 0-14-5z"/><path d="m2315 465c0-16 2-22 5-12 2 9 2 23 0 30-3 6-5-1-5-18z"/><path d="m2305 380c0-14 2-19 5-12 2 6 2 18 0 25-3 6-5 1-5-13z"/><path d="m983 360c0-5 7-10 15-10s15 5 15 10c0 6-7 10-15 10s-15-4-15-10z"/><path d="m1563 360c0-5 5-10 10-10 6 0 10 5 10 10 0 6-4 10-10 10-5 0-10-4-10-10z"/><path d="m2295 310c0-14 2-19 5-12 2 6 2 18 0 25-3 6-5 1-5-13z"/><path d="m2915 290c0-14 2-19 5-12 2 6 2 18 0 25-3 6-5 1-5-13z"/><path d="m3226 258c-14-24-11-36 8-31 10 3 19 12 19 20 0 11 7 14 25 11 13-3 22-1 19 3-8 14-62 11-71-3z"/></g><g fill="#d5e8dd" transform="translate(0 1051)"><path d="m3605 2035c10-14 19-26 22-26 7 0-17 39-28 46-6 3-3-5 6-20z"/><path d="m3645 1969c9-16 18-30 21-30 2 0-2 14-11 30-9 17-18 30-21 30-2 0 2-13 11-30z"/><path d="m201 1847c-23-23-56-60-73-82-35-45-21-32 67 62 65 70 69 84 6 20z"/><path d="m1 1344c-1-51 23-200 41-245 55-144 121-226 238-294 36-21 81-51 101-67 33-26 37-34 41-89 3-45 10-65 26-80 12-12 22-30 22-40 0-21 24-27 35-10 11 18 21 11 34-25 9-26 11-94 7-266-3-128-3-230 0-227 2 3 7 70 10 149 2 79 7 183 10 230 5 67 3 92-9 115-32 59-34 60-55 41-19-17-20-16-26 22-3 22-14 44-23 49-11 7-16 22-15 48 3 89-12 113-147 229-45 39-84 80-87 92-6 24-52 71-62 63-4-3-13 13-22 35-8 22-25 54-37 71-23 32-60 132-73 199l-8 40z"/><path d="m2110 1305c0-9 5-16 10-16 6 0 10 4 10 9 0 6-4 13-10 16-5 3-10-1-10-9z"/><path d="m2104 1210c0-40 4-63 8-53 5 12 7 8 6-13-3-51 60-204 96-234 9-8 16-18 16-23 0-6 14-26 30-45 37-41 38-28 11 72-11 39-26 94-33 124-16 69-41 83-33 19l5-43-16 45c-8 25-25 83-38 130-15 55-28 86-38 88-13 2-15-9-14-67z"/><path d="m898 1149c-9-61 48-187 141-309 31-40 66-86 77-103 12-16 29-35 37-41 24-19 137-165 137-178 0-27 42-63 75-65 31-1 33 0 25 22-5 12-26 38-47 57-31 29-35 37-25 50 11 13 4 22-48 62-60 46-82 72-35 41 16-10 25-12 25-5s9 5 25-5c55-36 31-12-52 53-101 78-138 116-146 149-3 12-4 22-2 22s27-20 56-45 57-45 61-45c5 0 27-12 49-26 63-40 36-9-46 51-81 61-207 193-245 259-14 24-32 54-41 67l-16 23zm112-140c0-5-7-7-15-4-8 4-15 8-15 10s7 4 15 4 15-4 15-10zm30-51c0-6-4-7-10-4-5 3-10 11-10 16 0 6 5 7 10 4 6-3 10-11 10-16zm328-468c3-8-1-12-9-9-7 2-15 10-17 17-3 8 1 12 9 9 7-2 15-10 17-17z"/><path d="m3494 1103c-16-20-40-48-54-63-14-14-25-28-25-31s-14-19-30-35c-17-17-60-63-97-103-37-39-70-72-72-72-17 0-136-142-158-188-37-80-35-99 3-22 23 45 61 91 134 164 56 55 118 115 138 131 46 39 210 255 193 255-2 0-17-16-32-36z"/><path d="m2281 1029c-1-44 35-220 47-232 16-16 1 143-16 182-9 19-19 46-23 60-6 22-7 21-8-10z"/><path d="m2350 850c0-5 7-15 17-22 15-13 15-12 4 9-12 23-21 28-21 13z"/><path d="m2248 684c-44-30-48-38-13-29 14 3 25 4 25 1 0-2-30-23-66-47-38-25-61-45-55-49 7-5 0-18-19-36-16-16-30-35-30-42s-9-28-20-48-20-48-19-63c1-26 1-26 9 5 4 17 20 53 35 80 48 82 191 224 209 206 11-12 6 13-6 30-12 16-16 15-50-8z"/><path d="m2133 639c-44-41-64-70-50-70 1 0 26 27 55 60s52 60 50 60-27-23-55-50z"/></g></g></svg>